<mxfile host="app.diagrams.net" modified="2020-10-16T15:18:15.929Z" agent="5.0 (Macintosh; Intel Mac OS X 10_15_2) AppleWebKit/605.1.15 (KHTML, like Gecko) Version/13.0.4 Safari/605.1.15" etag="u84s00d6hE-azYhgWWAI" version="13.8.0" type="github">
  <diagram id="u-xiWebNNTRi3w-Qb94a" name="Page-1">
    <mxGraphModel dx="2371" dy="1669" grid="1" gridSize="10" guides="1" tooltips="1" connect="1" arrows="1" fold="1" page="1" pageScale="1" pageWidth="1100" pageHeight="850" math="0" shadow="0">
      <root>
        <mxCell id="0" />
        <mxCell id="1" parent="0" />
        <mxCell id="ksuWYuczVlK9YjMwTnbf-2" style="edgeStyle=orthogonalEdgeStyle;rounded=0;orthogonalLoop=1;jettySize=auto;html=1;exitX=1;exitY=0.5;exitDx=0;exitDy=0;entryX=0.5;entryY=1;entryDx=0;entryDy=0;endArrow=none;endFill=0;" edge="1" parent="1" source="ksuWYuczVlK9YjMwTnbf-3" target="ksuWYuczVlK9YjMwTnbf-189">
          <mxGeometry relative="1" as="geometry">
            <Array as="points">
              <mxPoint x="1950" y="400" />
              <mxPoint x="1950" y="1580" />
              <mxPoint x="540" y="1580" />
            </Array>
          </mxGeometry>
        </mxCell>
        <mxCell id="ksuWYuczVlK9YjMwTnbf-3" value="&lt;font style=&quot;font-size: 40px&quot;&gt;&lt;b&gt;MEMS 1&lt;/b&gt;&lt;/font&gt;" style="rounded=0;whiteSpace=wrap;html=1;fillColor=#d5e8d4;strokeColor=#82b366;" vertex="1" parent="1">
          <mxGeometry x="1550" y="350" width="168" height="100" as="geometry" />
        </mxCell>
        <mxCell id="ksuWYuczVlK9YjMwTnbf-4" style="edgeStyle=orthogonalEdgeStyle;rounded=0;orthogonalLoop=1;jettySize=auto;html=1;exitX=1;exitY=0.5;exitDx=0;exitDy=0;entryX=0.5;entryY=1;entryDx=0;entryDy=0;endArrow=none;endFill=0;" edge="1" parent="1" source="ksuWYuczVlK9YjMwTnbf-5" target="ksuWYuczVlK9YjMwTnbf-199">
          <mxGeometry relative="1" as="geometry">
            <Array as="points">
              <mxPoint x="1900" y="660" />
              <mxPoint x="1900" y="1540" />
              <mxPoint x="777" y="1540" />
            </Array>
          </mxGeometry>
        </mxCell>
        <mxCell id="ksuWYuczVlK9YjMwTnbf-5" value="&lt;b style=&quot;font-size: 40px&quot;&gt;MEMS 3&lt;/b&gt;" style="rounded=0;whiteSpace=wrap;html=1;fillColor=#d5e8d4;strokeColor=#82b366;" vertex="1" parent="1">
          <mxGeometry x="1550" y="610" width="168" height="100" as="geometry" />
        </mxCell>
        <mxCell id="ksuWYuczVlK9YjMwTnbf-6" style="edgeStyle=orthogonalEdgeStyle;rounded=0;orthogonalLoop=1;jettySize=auto;html=1;exitX=1;exitY=0.5;exitDx=0;exitDy=0;entryX=0.5;entryY=1;entryDx=0;entryDy=0;endArrow=none;endFill=0;" edge="1" parent="1" source="ksuWYuczVlK9YjMwTnbf-7" target="ksuWYuczVlK9YjMwTnbf-197">
          <mxGeometry relative="1" as="geometry">
            <Array as="points">
              <mxPoint x="1780" y="1180" />
              <mxPoint x="1780" y="1430" />
              <mxPoint x="1251" y="1430" />
            </Array>
          </mxGeometry>
        </mxCell>
        <mxCell id="ksuWYuczVlK9YjMwTnbf-7" value="&lt;b style=&quot;font-size: 40px&quot;&gt;MEMS 7&lt;/b&gt;" style="rounded=0;whiteSpace=wrap;html=1;fillColor=#d5e8d4;strokeColor=#82b366;" vertex="1" parent="1">
          <mxGeometry x="1550" y="1130" width="168" height="100" as="geometry" />
        </mxCell>
        <mxCell id="ksuWYuczVlK9YjMwTnbf-8" style="edgeStyle=orthogonalEdgeStyle;rounded=0;orthogonalLoop=1;jettySize=auto;html=1;exitX=1;exitY=0.5;exitDx=0;exitDy=0;entryX=0.5;entryY=1;entryDx=0;entryDy=0;endArrow=none;endFill=0;" edge="1" parent="1" source="ksuWYuczVlK9YjMwTnbf-9" target="ksuWYuczVlK9YjMwTnbf-191">
          <mxGeometry relative="1" as="geometry">
            <Array as="points">
              <mxPoint x="1870" y="790" />
              <mxPoint x="1870" y="1520" />
              <mxPoint x="890" y="1520" />
            </Array>
          </mxGeometry>
        </mxCell>
        <mxCell id="ksuWYuczVlK9YjMwTnbf-9" value="&lt;b style=&quot;font-size: 40px&quot;&gt;MEMS 4&lt;/b&gt;" style="rounded=0;whiteSpace=wrap;html=1;fillColor=#d5e8d4;strokeColor=#82b366;" vertex="1" parent="1">
          <mxGeometry x="1550" y="740" width="168" height="100" as="geometry" />
        </mxCell>
        <mxCell id="ksuWYuczVlK9YjMwTnbf-10" style="edgeStyle=orthogonalEdgeStyle;rounded=0;orthogonalLoop=1;jettySize=auto;html=1;exitX=1;exitY=0.5;exitDx=0;exitDy=0;entryX=0.5;entryY=1;entryDx=0;entryDy=0;endArrow=none;endFill=0;" edge="1" parent="1" source="ksuWYuczVlK9YjMwTnbf-11" target="ksuWYuczVlK9YjMwTnbf-185">
          <mxGeometry relative="1" as="geometry">
            <Array as="points">
              <mxPoint x="1738" y="1310" />
              <mxPoint x="1738" y="1400" />
              <mxPoint x="1370" y="1400" />
            </Array>
          </mxGeometry>
        </mxCell>
        <mxCell id="ksuWYuczVlK9YjMwTnbf-11" value="&lt;b style=&quot;font-size: 40px&quot;&gt;MEMS 8&lt;/b&gt;" style="rounded=0;whiteSpace=wrap;html=1;fillColor=#d5e8d4;strokeColor=#82b366;" vertex="1" parent="1">
          <mxGeometry x="1550" y="1260" width="168" height="100" as="geometry" />
        </mxCell>
        <mxCell id="ksuWYuczVlK9YjMwTnbf-12" style="edgeStyle=orthogonalEdgeStyle;rounded=0;orthogonalLoop=1;jettySize=auto;html=1;exitX=1;exitY=0.5;exitDx=0;exitDy=0;entryX=0.5;entryY=1;entryDx=0;entryDy=0;endArrow=none;endFill=0;" edge="1" parent="1" source="ksuWYuczVlK9YjMwTnbf-13" target="ksuWYuczVlK9YjMwTnbf-195">
          <mxGeometry relative="1" as="geometry">
            <Array as="points">
              <mxPoint x="1840" y="920" />
              <mxPoint x="1840" y="1490" />
              <mxPoint x="1010" y="1490" />
            </Array>
          </mxGeometry>
        </mxCell>
        <mxCell id="ksuWYuczVlK9YjMwTnbf-13" value="&lt;b style=&quot;font-size: 40px&quot;&gt;MEMS 5&lt;/b&gt;" style="rounded=0;whiteSpace=wrap;html=1;fillColor=#d5e8d4;strokeColor=#82b366;" vertex="1" parent="1">
          <mxGeometry x="1550" y="870" width="168" height="100" as="geometry" />
        </mxCell>
        <mxCell id="ksuWYuczVlK9YjMwTnbf-14" style="edgeStyle=orthogonalEdgeStyle;rounded=0;orthogonalLoop=1;jettySize=auto;html=1;exitX=1;exitY=0.5;exitDx=0;exitDy=0;entryX=0.5;entryY=1;entryDx=0;entryDy=0;endArrow=none;endFill=0;" edge="1" parent="1" source="ksuWYuczVlK9YjMwTnbf-15" target="ksuWYuczVlK9YjMwTnbf-193">
          <mxGeometry relative="1" as="geometry">
            <Array as="points">
              <mxPoint x="1810" y="1050" />
              <mxPoint x="1810" y="1460" />
              <mxPoint x="1122" y="1460" />
            </Array>
          </mxGeometry>
        </mxCell>
        <mxCell id="ksuWYuczVlK9YjMwTnbf-15" value="&lt;b style=&quot;font-size: 40px&quot;&gt;MEMS 6&lt;/b&gt;" style="rounded=0;whiteSpace=wrap;html=1;fillColor=#d5e8d4;strokeColor=#82b366;" vertex="1" parent="1">
          <mxGeometry x="1550" y="1000" width="168" height="100" as="geometry" />
        </mxCell>
        <mxCell id="ksuWYuczVlK9YjMwTnbf-16" style="edgeStyle=orthogonalEdgeStyle;rounded=0;orthogonalLoop=1;jettySize=auto;html=1;exitX=1;exitY=0.5;exitDx=0;exitDy=0;entryX=0.5;entryY=1;entryDx=0;entryDy=0;endArrow=none;endFill=0;" edge="1" parent="1" source="ksuWYuczVlK9YjMwTnbf-17" target="ksuWYuczVlK9YjMwTnbf-187">
          <mxGeometry relative="1" as="geometry">
            <Array as="points">
              <mxPoint x="1920" y="530" />
              <mxPoint x="1920" y="1560" />
              <mxPoint x="659" y="1560" />
            </Array>
          </mxGeometry>
        </mxCell>
        <mxCell id="ksuWYuczVlK9YjMwTnbf-17" value="&lt;b style=&quot;font-size: 40px&quot;&gt;MEMS 2&lt;/b&gt;" style="rounded=0;whiteSpace=wrap;html=1;fillColor=#d5e8d4;strokeColor=#82b366;" vertex="1" parent="1">
          <mxGeometry x="1550" y="480" width="168" height="100" as="geometry" />
        </mxCell>
        <mxCell id="ksuWYuczVlK9YjMwTnbf-18" style="edgeStyle=orthogonalEdgeStyle;rounded=0;orthogonalLoop=1;jettySize=auto;html=1;exitX=1;exitY=0.5;exitDx=0;exitDy=0;entryX=0;entryY=0.5;entryDx=0;entryDy=0;endArrow=classic;endFill=1;" edge="1" parent="1" source="ksuWYuczVlK9YjMwTnbf-28" target="ksuWYuczVlK9YjMwTnbf-3">
          <mxGeometry relative="1" as="geometry" />
        </mxCell>
        <mxCell id="ksuWYuczVlK9YjMwTnbf-19" style="edgeStyle=orthogonalEdgeStyle;rounded=0;orthogonalLoop=1;jettySize=auto;html=1;entryX=0;entryY=0.5;entryDx=0;entryDy=0;endArrow=classic;endFill=1;" edge="1" parent="1" source="ksuWYuczVlK9YjMwTnbf-50" target="ksuWYuczVlK9YjMwTnbf-17">
          <mxGeometry relative="1" as="geometry" />
        </mxCell>
        <mxCell id="ksuWYuczVlK9YjMwTnbf-20" style="edgeStyle=orthogonalEdgeStyle;rounded=0;orthogonalLoop=1;jettySize=auto;html=1;exitX=1;exitY=0.5;exitDx=0;exitDy=0;entryX=0;entryY=0.5;entryDx=0;entryDy=0;endArrow=classic;endFill=1;" edge="1" parent="1" source="ksuWYuczVlK9YjMwTnbf-74" target="ksuWYuczVlK9YjMwTnbf-5">
          <mxGeometry relative="1" as="geometry" />
        </mxCell>
        <mxCell id="ksuWYuczVlK9YjMwTnbf-21" style="edgeStyle=orthogonalEdgeStyle;rounded=0;orthogonalLoop=1;jettySize=auto;html=1;entryX=0;entryY=0.5;entryDx=0;entryDy=0;endArrow=classic;endFill=1;" edge="1" parent="1" source="ksuWYuczVlK9YjMwTnbf-97" target="ksuWYuczVlK9YjMwTnbf-9">
          <mxGeometry relative="1" as="geometry" />
        </mxCell>
        <mxCell id="ksuWYuczVlK9YjMwTnbf-22" style="edgeStyle=orthogonalEdgeStyle;rounded=0;orthogonalLoop=1;jettySize=auto;html=1;entryX=0;entryY=0.5;entryDx=0;entryDy=0;endArrow=classic;endFill=1;" edge="1" parent="1" source="ksuWYuczVlK9YjMwTnbf-120" target="ksuWYuczVlK9YjMwTnbf-13">
          <mxGeometry relative="1" as="geometry" />
        </mxCell>
        <mxCell id="ksuWYuczVlK9YjMwTnbf-23" style="edgeStyle=orthogonalEdgeStyle;rounded=0;orthogonalLoop=1;jettySize=auto;html=1;entryX=0;entryY=0.5;entryDx=0;entryDy=0;endArrow=classic;endFill=1;" edge="1" parent="1" source="ksuWYuczVlK9YjMwTnbf-143" target="ksuWYuczVlK9YjMwTnbf-15">
          <mxGeometry relative="1" as="geometry" />
        </mxCell>
        <mxCell id="ksuWYuczVlK9YjMwTnbf-24" style="edgeStyle=orthogonalEdgeStyle;rounded=0;orthogonalLoop=1;jettySize=auto;html=1;entryX=0;entryY=0.5;entryDx=0;entryDy=0;endArrow=classic;endFill=1;" edge="1" parent="1" source="ksuWYuczVlK9YjMwTnbf-164" target="ksuWYuczVlK9YjMwTnbf-7">
          <mxGeometry relative="1" as="geometry" />
        </mxCell>
        <mxCell id="ksuWYuczVlK9YjMwTnbf-25" style="edgeStyle=orthogonalEdgeStyle;rounded=0;orthogonalLoop=1;jettySize=auto;html=1;entryX=0;entryY=0.5;entryDx=0;entryDy=0;endArrow=classic;endFill=1;" edge="1" parent="1" source="ksuWYuczVlK9YjMwTnbf-185" target="ksuWYuczVlK9YjMwTnbf-11">
          <mxGeometry relative="1" as="geometry" />
        </mxCell>
        <mxCell id="ksuWYuczVlK9YjMwTnbf-26" value="" style="group" vertex="1" connectable="0" parent="1">
          <mxGeometry x="500" y="360" width="911" height="990" as="geometry" />
        </mxCell>
        <mxCell id="ksuWYuczVlK9YjMwTnbf-27" style="edgeStyle=orthogonalEdgeStyle;rounded=0;orthogonalLoop=1;jettySize=auto;html=1;exitX=0.5;exitY=1;exitDx=0;exitDy=0;entryX=0.5;entryY=0;entryDx=0;entryDy=0;endArrow=none;endFill=0;" edge="1" parent="ksuWYuczVlK9YjMwTnbf-26" source="ksuWYuczVlK9YjMwTnbf-28" target="ksuWYuczVlK9YjMwTnbf-50">
          <mxGeometry relative="1" as="geometry" />
        </mxCell>
        <mxCell id="ksuWYuczVlK9YjMwTnbf-28" value="&lt;span style=&quot;font-size: 39px&quot;&gt;p&lt;sub&gt;81&lt;/sub&gt;&lt;/span&gt;" style="ellipse;whiteSpace=wrap;html=1;aspect=fixed;fillColor=#fff2cc;strokeColor=#d6b656;" vertex="1" parent="ksuWYuczVlK9YjMwTnbf-26">
          <mxGeometry x="830" width="80" height="80" as="geometry" />
        </mxCell>
        <mxCell id="ksuWYuczVlK9YjMwTnbf-29" style="edgeStyle=orthogonalEdgeStyle;rounded=0;orthogonalLoop=1;jettySize=auto;html=1;exitX=1;exitY=0.5;exitDx=0;exitDy=0;entryX=0;entryY=0.5;entryDx=0;entryDy=0;endArrow=none;endFill=0;" edge="1" parent="ksuWYuczVlK9YjMwTnbf-26" source="ksuWYuczVlK9YjMwTnbf-31" target="ksuWYuczVlK9YjMwTnbf-48">
          <mxGeometry relative="1" as="geometry" />
        </mxCell>
        <mxCell id="ksuWYuczVlK9YjMwTnbf-30" style="edgeStyle=orthogonalEdgeStyle;rounded=0;orthogonalLoop=1;jettySize=auto;html=1;exitX=0.5;exitY=1;exitDx=0;exitDy=0;entryX=0.5;entryY=0;entryDx=0;entryDy=0;endArrow=none;endFill=0;" edge="1" parent="ksuWYuczVlK9YjMwTnbf-26" source="ksuWYuczVlK9YjMwTnbf-31" target="ksuWYuczVlK9YjMwTnbf-53">
          <mxGeometry relative="1" as="geometry" />
        </mxCell>
        <mxCell id="ksuWYuczVlK9YjMwTnbf-31" value="&lt;span style=&quot;font-size: 39px&quot;&gt;p&lt;sub&gt;21&lt;/sub&gt;&lt;/span&gt;" style="ellipse;whiteSpace=wrap;html=1;aspect=fixed;fillColor=#fff2cc;strokeColor=#d6b656;" vertex="1" parent="ksuWYuczVlK9YjMwTnbf-26">
          <mxGeometry x="119" width="80" height="80" as="geometry" />
        </mxCell>
        <mxCell id="ksuWYuczVlK9YjMwTnbf-32" style="edgeStyle=orthogonalEdgeStyle;rounded=0;orthogonalLoop=1;jettySize=auto;html=1;exitX=1;exitY=0.5;exitDx=0;exitDy=0;entryX=0;entryY=0.5;entryDx=0;entryDy=0;endArrow=none;endFill=0;" edge="1" parent="ksuWYuczVlK9YjMwTnbf-26" source="ksuWYuczVlK9YjMwTnbf-34" target="ksuWYuczVlK9YjMwTnbf-31">
          <mxGeometry relative="1" as="geometry" />
        </mxCell>
        <mxCell id="ksuWYuczVlK9YjMwTnbf-33" style="edgeStyle=orthogonalEdgeStyle;rounded=0;orthogonalLoop=1;jettySize=auto;html=1;exitX=0.5;exitY=1;exitDx=0;exitDy=0;entryX=0.5;entryY=0;entryDx=0;entryDy=0;endArrow=none;endFill=0;" edge="1" parent="ksuWYuczVlK9YjMwTnbf-26" source="ksuWYuczVlK9YjMwTnbf-34" target="ksuWYuczVlK9YjMwTnbf-56">
          <mxGeometry relative="1" as="geometry" />
        </mxCell>
        <mxCell id="ksuWYuczVlK9YjMwTnbf-34" value="&lt;span style=&quot;font-size: 39px&quot;&gt;P&lt;sub&gt;11&lt;/sub&gt;&lt;/span&gt;" style="ellipse;whiteSpace=wrap;html=1;aspect=fixed;fillColor=#fff2cc;strokeColor=#d6b656;" vertex="1" parent="ksuWYuczVlK9YjMwTnbf-26">
          <mxGeometry width="80" height="80" as="geometry" />
        </mxCell>
        <mxCell id="ksuWYuczVlK9YjMwTnbf-35" style="edgeStyle=orthogonalEdgeStyle;rounded=0;orthogonalLoop=1;jettySize=auto;html=1;exitX=1;exitY=0.5;exitDx=0;exitDy=0;entryX=0;entryY=0.5;entryDx=0;entryDy=0;endArrow=none;endFill=0;" edge="1" parent="ksuWYuczVlK9YjMwTnbf-26" source="ksuWYuczVlK9YjMwTnbf-37" target="ksuWYuczVlK9YjMwTnbf-43">
          <mxGeometry relative="1" as="geometry" />
        </mxCell>
        <mxCell id="ksuWYuczVlK9YjMwTnbf-36" style="edgeStyle=orthogonalEdgeStyle;rounded=0;orthogonalLoop=1;jettySize=auto;html=1;exitX=0.5;exitY=1;exitDx=0;exitDy=0;entryX=0.5;entryY=0;entryDx=0;entryDy=0;endArrow=none;endFill=0;" edge="1" parent="ksuWYuczVlK9YjMwTnbf-26" source="ksuWYuczVlK9YjMwTnbf-37" target="ksuWYuczVlK9YjMwTnbf-59">
          <mxGeometry relative="1" as="geometry" />
        </mxCell>
        <mxCell id="ksuWYuczVlK9YjMwTnbf-37" value="&lt;span style=&quot;font-size: 39px&quot;&gt;p&lt;/span&gt;&lt;font size=&quot;6&quot;&gt;41&lt;/font&gt;" style="ellipse;whiteSpace=wrap;html=1;aspect=fixed;fillColor=#fff2cc;strokeColor=#d6b656;" vertex="1" parent="ksuWYuczVlK9YjMwTnbf-26">
          <mxGeometry x="350" width="80" height="80" as="geometry" />
        </mxCell>
        <mxCell id="ksuWYuczVlK9YjMwTnbf-38" style="edgeStyle=orthogonalEdgeStyle;rounded=0;orthogonalLoop=1;jettySize=auto;html=1;exitX=1;exitY=0.5;exitDx=0;exitDy=0;entryX=0;entryY=0.5;entryDx=0;entryDy=0;endArrow=none;endFill=0;" edge="1" parent="ksuWYuczVlK9YjMwTnbf-26" source="ksuWYuczVlK9YjMwTnbf-40" target="ksuWYuczVlK9YjMwTnbf-46">
          <mxGeometry relative="1" as="geometry" />
        </mxCell>
        <mxCell id="ksuWYuczVlK9YjMwTnbf-39" style="edgeStyle=orthogonalEdgeStyle;rounded=0;orthogonalLoop=1;jettySize=auto;html=1;exitX=0.5;exitY=1;exitDx=0;exitDy=0;entryX=0.5;entryY=0;entryDx=0;entryDy=0;endArrow=none;endFill=0;" edge="1" parent="ksuWYuczVlK9YjMwTnbf-26" source="ksuWYuczVlK9YjMwTnbf-40" target="ksuWYuczVlK9YjMwTnbf-62">
          <mxGeometry relative="1" as="geometry" />
        </mxCell>
        <mxCell id="ksuWYuczVlK9YjMwTnbf-40" value="&lt;span style=&quot;font-size: 39px&quot;&gt;p&lt;sub&gt;61&lt;/sub&gt;&lt;/span&gt;" style="ellipse;whiteSpace=wrap;html=1;aspect=fixed;fillColor=#fff2cc;strokeColor=#d6b656;" vertex="1" parent="ksuWYuczVlK9YjMwTnbf-26">
          <mxGeometry x="582" width="80" height="80" as="geometry" />
        </mxCell>
        <mxCell id="ksuWYuczVlK9YjMwTnbf-41" style="edgeStyle=orthogonalEdgeStyle;rounded=0;orthogonalLoop=1;jettySize=auto;html=1;exitX=1;exitY=0.5;exitDx=0;exitDy=0;entryX=0;entryY=0.5;entryDx=0;entryDy=0;endArrow=none;endFill=0;" edge="1" parent="ksuWYuczVlK9YjMwTnbf-26" source="ksuWYuczVlK9YjMwTnbf-43" target="ksuWYuczVlK9YjMwTnbf-40">
          <mxGeometry relative="1" as="geometry" />
        </mxCell>
        <mxCell id="ksuWYuczVlK9YjMwTnbf-42" style="edgeStyle=orthogonalEdgeStyle;rounded=0;orthogonalLoop=1;jettySize=auto;html=1;exitX=0.5;exitY=1;exitDx=0;exitDy=0;entryX=0.5;entryY=0;entryDx=0;entryDy=0;endArrow=none;endFill=0;" edge="1" parent="ksuWYuczVlK9YjMwTnbf-26" source="ksuWYuczVlK9YjMwTnbf-43" target="ksuWYuczVlK9YjMwTnbf-65">
          <mxGeometry relative="1" as="geometry" />
        </mxCell>
        <mxCell id="ksuWYuczVlK9YjMwTnbf-43" value="&lt;span style=&quot;font-size: 39px&quot;&gt;p&lt;sub&gt;51&lt;/sub&gt;&lt;/span&gt;" style="ellipse;whiteSpace=wrap;html=1;aspect=fixed;fillColor=#fff2cc;strokeColor=#d6b656;" vertex="1" parent="ksuWYuczVlK9YjMwTnbf-26">
          <mxGeometry x="470" width="80" height="80" as="geometry" />
        </mxCell>
        <mxCell id="ksuWYuczVlK9YjMwTnbf-44" style="edgeStyle=orthogonalEdgeStyle;rounded=0;orthogonalLoop=1;jettySize=auto;html=1;exitX=1;exitY=0.5;exitDx=0;exitDy=0;endArrow=none;endFill=0;" edge="1" parent="ksuWYuczVlK9YjMwTnbf-26" source="ksuWYuczVlK9YjMwTnbf-46" target="ksuWYuczVlK9YjMwTnbf-28">
          <mxGeometry relative="1" as="geometry" />
        </mxCell>
        <mxCell id="ksuWYuczVlK9YjMwTnbf-45" style="edgeStyle=orthogonalEdgeStyle;rounded=0;orthogonalLoop=1;jettySize=auto;html=1;exitX=0.5;exitY=1;exitDx=0;exitDy=0;endArrow=none;endFill=0;" edge="1" parent="ksuWYuczVlK9YjMwTnbf-26" source="ksuWYuczVlK9YjMwTnbf-46" target="ksuWYuczVlK9YjMwTnbf-68">
          <mxGeometry relative="1" as="geometry" />
        </mxCell>
        <mxCell id="ksuWYuczVlK9YjMwTnbf-46" value="&lt;span style=&quot;font-size: 39px&quot;&gt;p&lt;sub&gt;71&lt;/sub&gt;&lt;/span&gt;" style="ellipse;whiteSpace=wrap;html=1;aspect=fixed;fillColor=#fff2cc;strokeColor=#d6b656;" vertex="1" parent="ksuWYuczVlK9YjMwTnbf-26">
          <mxGeometry x="711" width="80" height="80" as="geometry" />
        </mxCell>
        <mxCell id="ksuWYuczVlK9YjMwTnbf-47" style="edgeStyle=orthogonalEdgeStyle;rounded=0;orthogonalLoop=1;jettySize=auto;html=1;exitX=1;exitY=0.5;exitDx=0;exitDy=0;entryX=0;entryY=0.5;entryDx=0;entryDy=0;endArrow=none;endFill=0;" edge="1" parent="ksuWYuczVlK9YjMwTnbf-26" source="ksuWYuczVlK9YjMwTnbf-48" target="ksuWYuczVlK9YjMwTnbf-37">
          <mxGeometry relative="1" as="geometry" />
        </mxCell>
        <mxCell id="ksuWYuczVlK9YjMwTnbf-48" value="&lt;span style=&quot;font-size: 39px&quot;&gt;p&lt;/span&gt;&lt;font size=&quot;6&quot;&gt;31&lt;/font&gt;" style="ellipse;whiteSpace=wrap;html=1;aspect=fixed;fillColor=#fff2cc;strokeColor=#d6b656;" vertex="1" parent="ksuWYuczVlK9YjMwTnbf-26">
          <mxGeometry x="237" width="80" height="80" as="geometry" />
        </mxCell>
        <mxCell id="ksuWYuczVlK9YjMwTnbf-49" style="edgeStyle=orthogonalEdgeStyle;rounded=0;orthogonalLoop=1;jettySize=auto;html=1;exitX=0.5;exitY=1;exitDx=0;exitDy=0;entryX=0.5;entryY=0;entryDx=0;entryDy=0;endArrow=none;endFill=0;" edge="1" parent="ksuWYuczVlK9YjMwTnbf-26" source="ksuWYuczVlK9YjMwTnbf-50" target="ksuWYuczVlK9YjMwTnbf-74">
          <mxGeometry relative="1" as="geometry" />
        </mxCell>
        <mxCell id="ksuWYuczVlK9YjMwTnbf-50" value="&lt;span style=&quot;font-size: 39px&quot;&gt;p&lt;sub&gt;28&lt;/sub&gt;&lt;/span&gt;" style="ellipse;whiteSpace=wrap;html=1;aspect=fixed;fillColor=#fff2cc;strokeColor=#d6b656;" vertex="1" parent="ksuWYuczVlK9YjMwTnbf-26">
          <mxGeometry x="831" y="130" width="80" height="80" as="geometry" />
        </mxCell>
        <mxCell id="ksuWYuczVlK9YjMwTnbf-51" style="edgeStyle=orthogonalEdgeStyle;rounded=0;orthogonalLoop=1;jettySize=auto;html=1;exitX=0.5;exitY=1;exitDx=0;exitDy=0;entryX=0.5;entryY=0;entryDx=0;entryDy=0;endArrow=none;endFill=0;" edge="1" parent="ksuWYuczVlK9YjMwTnbf-26" source="ksuWYuczVlK9YjMwTnbf-53" target="ksuWYuczVlK9YjMwTnbf-77">
          <mxGeometry relative="1" as="geometry" />
        </mxCell>
        <mxCell id="ksuWYuczVlK9YjMwTnbf-52" style="edgeStyle=orthogonalEdgeStyle;rounded=0;orthogonalLoop=1;jettySize=auto;html=1;exitX=1;exitY=0.5;exitDx=0;exitDy=0;entryX=0;entryY=0.5;entryDx=0;entryDy=0;endArrow=none;endFill=0;" edge="1" parent="ksuWYuczVlK9YjMwTnbf-26" source="ksuWYuczVlK9YjMwTnbf-53" target="ksuWYuczVlK9YjMwTnbf-72">
          <mxGeometry relative="1" as="geometry" />
        </mxCell>
        <mxCell id="ksuWYuczVlK9YjMwTnbf-53" value="&lt;span style=&quot;font-size: 39px&quot;&gt;p&lt;sub&gt;22&lt;/sub&gt;&lt;/span&gt;" style="ellipse;whiteSpace=wrap;html=1;aspect=fixed;fillColor=#fff2cc;strokeColor=#d6b656;" vertex="1" parent="ksuWYuczVlK9YjMwTnbf-26">
          <mxGeometry x="119" y="130" width="80" height="80" as="geometry" />
        </mxCell>
        <mxCell id="ksuWYuczVlK9YjMwTnbf-54" style="edgeStyle=orthogonalEdgeStyle;rounded=0;orthogonalLoop=1;jettySize=auto;html=1;exitX=0.5;exitY=1;exitDx=0;exitDy=0;entryX=0.5;entryY=0;entryDx=0;entryDy=0;endArrow=none;endFill=0;" edge="1" parent="ksuWYuczVlK9YjMwTnbf-26" source="ksuWYuczVlK9YjMwTnbf-56" target="ksuWYuczVlK9YjMwTnbf-80">
          <mxGeometry relative="1" as="geometry" />
        </mxCell>
        <mxCell id="ksuWYuczVlK9YjMwTnbf-55" style="edgeStyle=orthogonalEdgeStyle;rounded=0;orthogonalLoop=1;jettySize=auto;html=1;exitX=1;exitY=0.5;exitDx=0;exitDy=0;entryX=0;entryY=0.5;entryDx=0;entryDy=0;endArrow=none;endFill=0;" edge="1" parent="ksuWYuczVlK9YjMwTnbf-26" source="ksuWYuczVlK9YjMwTnbf-56" target="ksuWYuczVlK9YjMwTnbf-53">
          <mxGeometry relative="1" as="geometry" />
        </mxCell>
        <mxCell id="ksuWYuczVlK9YjMwTnbf-56" value="&lt;span style=&quot;font-size: 39px&quot;&gt;p&lt;sub&gt;21&lt;/sub&gt;&lt;/span&gt;" style="ellipse;whiteSpace=wrap;html=1;aspect=fixed;fillColor=#fff2cc;strokeColor=#d6b656;" vertex="1" parent="ksuWYuczVlK9YjMwTnbf-26">
          <mxGeometry y="130" width="80" height="80" as="geometry" />
        </mxCell>
        <mxCell id="ksuWYuczVlK9YjMwTnbf-57" style="edgeStyle=orthogonalEdgeStyle;rounded=0;orthogonalLoop=1;jettySize=auto;html=1;exitX=1;exitY=0.5;exitDx=0;exitDy=0;entryX=0;entryY=0.5;entryDx=0;entryDy=0;endArrow=none;endFill=0;" edge="1" parent="ksuWYuczVlK9YjMwTnbf-26" source="ksuWYuczVlK9YjMwTnbf-59" target="ksuWYuczVlK9YjMwTnbf-65">
          <mxGeometry relative="1" as="geometry" />
        </mxCell>
        <mxCell id="ksuWYuczVlK9YjMwTnbf-58" style="edgeStyle=orthogonalEdgeStyle;rounded=0;orthogonalLoop=1;jettySize=auto;html=1;exitX=0.5;exitY=1;exitDx=0;exitDy=0;entryX=0.5;entryY=0;entryDx=0;entryDy=0;endArrow=none;endFill=0;" edge="1" parent="ksuWYuczVlK9YjMwTnbf-26" source="ksuWYuczVlK9YjMwTnbf-59" target="ksuWYuczVlK9YjMwTnbf-83">
          <mxGeometry relative="1" as="geometry" />
        </mxCell>
        <mxCell id="ksuWYuczVlK9YjMwTnbf-59" value="&lt;span style=&quot;font-size: 39px&quot;&gt;p&lt;sub&gt;24&lt;/sub&gt;&lt;/span&gt;" style="ellipse;whiteSpace=wrap;html=1;aspect=fixed;fillColor=#fff2cc;strokeColor=#d6b656;" vertex="1" parent="ksuWYuczVlK9YjMwTnbf-26">
          <mxGeometry x="350" y="130" width="80" height="80" as="geometry" />
        </mxCell>
        <mxCell id="ksuWYuczVlK9YjMwTnbf-60" style="edgeStyle=orthogonalEdgeStyle;rounded=0;orthogonalLoop=1;jettySize=auto;html=1;exitX=1;exitY=0.5;exitDx=0;exitDy=0;endArrow=none;endFill=0;" edge="1" parent="ksuWYuczVlK9YjMwTnbf-26" source="ksuWYuczVlK9YjMwTnbf-62" target="ksuWYuczVlK9YjMwTnbf-68">
          <mxGeometry relative="1" as="geometry" />
        </mxCell>
        <mxCell id="ksuWYuczVlK9YjMwTnbf-61" style="edgeStyle=orthogonalEdgeStyle;rounded=0;orthogonalLoop=1;jettySize=auto;html=1;exitX=0.5;exitY=1;exitDx=0;exitDy=0;entryX=0.5;entryY=0;entryDx=0;entryDy=0;endArrow=none;endFill=0;" edge="1" parent="ksuWYuczVlK9YjMwTnbf-26" source="ksuWYuczVlK9YjMwTnbf-62" target="ksuWYuczVlK9YjMwTnbf-86">
          <mxGeometry relative="1" as="geometry" />
        </mxCell>
        <mxCell id="ksuWYuczVlK9YjMwTnbf-62" value="&lt;span style=&quot;font-size: 39px&quot;&gt;p&lt;sub&gt;26&lt;/sub&gt;&lt;/span&gt;" style="ellipse;whiteSpace=wrap;html=1;aspect=fixed;fillColor=#fff2cc;strokeColor=#d6b656;" vertex="1" parent="ksuWYuczVlK9YjMwTnbf-26">
          <mxGeometry x="581.9999999999999" y="130" width="80" height="80" as="geometry" />
        </mxCell>
        <mxCell id="ksuWYuczVlK9YjMwTnbf-63" style="edgeStyle=orthogonalEdgeStyle;rounded=0;orthogonalLoop=1;jettySize=auto;html=1;exitX=1;exitY=0.5;exitDx=0;exitDy=0;entryX=0;entryY=0.5;entryDx=0;entryDy=0;endArrow=none;endFill=0;" edge="1" parent="ksuWYuczVlK9YjMwTnbf-26" source="ksuWYuczVlK9YjMwTnbf-65" target="ksuWYuczVlK9YjMwTnbf-62">
          <mxGeometry relative="1" as="geometry" />
        </mxCell>
        <mxCell id="ksuWYuczVlK9YjMwTnbf-64" style="edgeStyle=orthogonalEdgeStyle;rounded=0;orthogonalLoop=1;jettySize=auto;html=1;exitX=0.5;exitY=1;exitDx=0;exitDy=0;entryX=0.5;entryY=0;entryDx=0;entryDy=0;endArrow=none;endFill=0;" edge="1" parent="ksuWYuczVlK9YjMwTnbf-26" source="ksuWYuczVlK9YjMwTnbf-65" target="ksuWYuczVlK9YjMwTnbf-89">
          <mxGeometry relative="1" as="geometry" />
        </mxCell>
        <mxCell id="ksuWYuczVlK9YjMwTnbf-65" value="&lt;span style=&quot;font-size: 39px&quot;&gt;p&lt;sub&gt;25&lt;/sub&gt;&lt;/span&gt;" style="ellipse;whiteSpace=wrap;html=1;aspect=fixed;fillColor=#fff2cc;strokeColor=#d6b656;" vertex="1" parent="ksuWYuczVlK9YjMwTnbf-26">
          <mxGeometry x="469.9999999999999" y="130" width="80" height="80" as="geometry" />
        </mxCell>
        <mxCell id="ksuWYuczVlK9YjMwTnbf-66" style="edgeStyle=orthogonalEdgeStyle;rounded=0;orthogonalLoop=1;jettySize=auto;html=1;exitX=1;exitY=0.5;exitDx=0;exitDy=0;entryX=0;entryY=0.5;entryDx=0;entryDy=0;endArrow=none;endFill=0;" edge="1" parent="ksuWYuczVlK9YjMwTnbf-26" source="ksuWYuczVlK9YjMwTnbf-68" target="ksuWYuczVlK9YjMwTnbf-50">
          <mxGeometry relative="1" as="geometry" />
        </mxCell>
        <mxCell id="ksuWYuczVlK9YjMwTnbf-67" style="edgeStyle=orthogonalEdgeStyle;rounded=0;orthogonalLoop=1;jettySize=auto;html=1;exitX=0.5;exitY=1;exitDx=0;exitDy=0;entryX=0.5;entryY=0;entryDx=0;entryDy=0;endArrow=none;endFill=0;" edge="1" parent="ksuWYuczVlK9YjMwTnbf-26" source="ksuWYuczVlK9YjMwTnbf-68" target="ksuWYuczVlK9YjMwTnbf-92">
          <mxGeometry relative="1" as="geometry" />
        </mxCell>
        <mxCell id="ksuWYuczVlK9YjMwTnbf-68" value="&lt;span style=&quot;font-size: 39px&quot;&gt;p&lt;sub&gt;27&lt;/sub&gt;&lt;/span&gt;" style="ellipse;whiteSpace=wrap;html=1;aspect=fixed;fillColor=#fff2cc;strokeColor=#d6b656;" vertex="1" parent="ksuWYuczVlK9YjMwTnbf-26">
          <mxGeometry x="711" y="130" width="80" height="80" as="geometry" />
        </mxCell>
        <mxCell id="ksuWYuczVlK9YjMwTnbf-69" style="edgeStyle=orthogonalEdgeStyle;rounded=0;orthogonalLoop=1;jettySize=auto;html=1;exitX=0.5;exitY=0;exitDx=0;exitDy=0;entryX=0.5;entryY=1;entryDx=0;entryDy=0;endArrow=none;endFill=0;" edge="1" parent="ksuWYuczVlK9YjMwTnbf-26" source="ksuWYuczVlK9YjMwTnbf-72" target="ksuWYuczVlK9YjMwTnbf-48">
          <mxGeometry relative="1" as="geometry" />
        </mxCell>
        <mxCell id="ksuWYuczVlK9YjMwTnbf-70" style="edgeStyle=orthogonalEdgeStyle;rounded=0;orthogonalLoop=1;jettySize=auto;html=1;exitX=1;exitY=0.5;exitDx=0;exitDy=0;entryX=0;entryY=0.5;entryDx=0;entryDy=0;endArrow=none;endFill=0;" edge="1" parent="ksuWYuczVlK9YjMwTnbf-26" source="ksuWYuczVlK9YjMwTnbf-72" target="ksuWYuczVlK9YjMwTnbf-59">
          <mxGeometry relative="1" as="geometry" />
        </mxCell>
        <mxCell id="ksuWYuczVlK9YjMwTnbf-71" style="edgeStyle=orthogonalEdgeStyle;rounded=0;orthogonalLoop=1;jettySize=auto;html=1;exitX=0.5;exitY=1;exitDx=0;exitDy=0;entryX=0.5;entryY=0;entryDx=0;entryDy=0;endArrow=none;endFill=0;" edge="1" parent="ksuWYuczVlK9YjMwTnbf-26" source="ksuWYuczVlK9YjMwTnbf-72" target="ksuWYuczVlK9YjMwTnbf-95">
          <mxGeometry relative="1" as="geometry" />
        </mxCell>
        <mxCell id="ksuWYuczVlK9YjMwTnbf-72" value="&lt;span style=&quot;font-size: 39px&quot;&gt;p&lt;sub&gt;23&lt;/sub&gt;&lt;/span&gt;" style="ellipse;whiteSpace=wrap;html=1;aspect=fixed;fillColor=#fff2cc;strokeColor=#d6b656;" vertex="1" parent="ksuWYuczVlK9YjMwTnbf-26">
          <mxGeometry x="237" y="130" width="80" height="80" as="geometry" />
        </mxCell>
        <mxCell id="ksuWYuczVlK9YjMwTnbf-73" style="edgeStyle=orthogonalEdgeStyle;rounded=0;orthogonalLoop=1;jettySize=auto;html=1;exitX=0.5;exitY=1;exitDx=0;exitDy=0;entryX=0.5;entryY=0;entryDx=0;entryDy=0;endArrow=none;endFill=0;" edge="1" parent="ksuWYuczVlK9YjMwTnbf-26" source="ksuWYuczVlK9YjMwTnbf-74" target="ksuWYuczVlK9YjMwTnbf-97">
          <mxGeometry relative="1" as="geometry" />
        </mxCell>
        <mxCell id="ksuWYuczVlK9YjMwTnbf-74" value="&lt;span style=&quot;font-size: 39px&quot;&gt;p&lt;sub&gt;38&lt;/sub&gt;&lt;/span&gt;" style="ellipse;whiteSpace=wrap;html=1;aspect=fixed;fillColor=#fff2cc;strokeColor=#d6b656;" vertex="1" parent="ksuWYuczVlK9YjMwTnbf-26">
          <mxGeometry x="831" y="260" width="80" height="80" as="geometry" />
        </mxCell>
        <mxCell id="ksuWYuczVlK9YjMwTnbf-75" style="edgeStyle=orthogonalEdgeStyle;rounded=0;orthogonalLoop=1;jettySize=auto;html=1;exitX=1;exitY=0.5;exitDx=0;exitDy=0;entryX=0;entryY=0.5;entryDx=0;entryDy=0;endArrow=none;endFill=0;" edge="1" parent="ksuWYuczVlK9YjMwTnbf-26" source="ksuWYuczVlK9YjMwTnbf-77" target="ksuWYuczVlK9YjMwTnbf-95">
          <mxGeometry relative="1" as="geometry" />
        </mxCell>
        <mxCell id="ksuWYuczVlK9YjMwTnbf-76" style="edgeStyle=orthogonalEdgeStyle;rounded=0;orthogonalLoop=1;jettySize=auto;html=1;exitX=0.5;exitY=1;exitDx=0;exitDy=0;entryX=0.5;entryY=0;entryDx=0;entryDy=0;endArrow=none;endFill=0;" edge="1" parent="ksuWYuczVlK9YjMwTnbf-26" source="ksuWYuczVlK9YjMwTnbf-77" target="ksuWYuczVlK9YjMwTnbf-100">
          <mxGeometry relative="1" as="geometry" />
        </mxCell>
        <mxCell id="ksuWYuczVlK9YjMwTnbf-77" value="&lt;span style=&quot;font-size: 39px&quot;&gt;p&lt;/span&gt;&lt;font size=&quot;6&quot;&gt;32&lt;/font&gt;" style="ellipse;whiteSpace=wrap;html=1;aspect=fixed;fillColor=#fff2cc;strokeColor=#d6b656;" vertex="1" parent="ksuWYuczVlK9YjMwTnbf-26">
          <mxGeometry x="119" y="260" width="80" height="80" as="geometry" />
        </mxCell>
        <mxCell id="ksuWYuczVlK9YjMwTnbf-78" style="edgeStyle=orthogonalEdgeStyle;rounded=0;orthogonalLoop=1;jettySize=auto;html=1;exitX=0.5;exitY=1;exitDx=0;exitDy=0;entryX=0.5;entryY=0;entryDx=0;entryDy=0;endArrow=none;endFill=0;" edge="1" parent="ksuWYuczVlK9YjMwTnbf-26" source="ksuWYuczVlK9YjMwTnbf-80" target="ksuWYuczVlK9YjMwTnbf-103">
          <mxGeometry relative="1" as="geometry" />
        </mxCell>
        <mxCell id="ksuWYuczVlK9YjMwTnbf-79" style="edgeStyle=orthogonalEdgeStyle;rounded=0;orthogonalLoop=1;jettySize=auto;html=1;exitX=1;exitY=0.5;exitDx=0;exitDy=0;entryX=0;entryY=0.5;entryDx=0;entryDy=0;endArrow=none;endFill=0;" edge="1" parent="ksuWYuczVlK9YjMwTnbf-26" source="ksuWYuczVlK9YjMwTnbf-80" target="ksuWYuczVlK9YjMwTnbf-77">
          <mxGeometry relative="1" as="geometry" />
        </mxCell>
        <mxCell id="ksuWYuczVlK9YjMwTnbf-80" value="&lt;span style=&quot;font-size: 39px&quot;&gt;P&lt;/span&gt;&lt;span style=&quot;font-size: 32px&quot;&gt;31&lt;/span&gt;" style="ellipse;whiteSpace=wrap;html=1;aspect=fixed;fillColor=#fff2cc;strokeColor=#d6b656;" vertex="1" parent="ksuWYuczVlK9YjMwTnbf-26">
          <mxGeometry y="260" width="80" height="80" as="geometry" />
        </mxCell>
        <mxCell id="ksuWYuczVlK9YjMwTnbf-81" style="edgeStyle=orthogonalEdgeStyle;rounded=0;orthogonalLoop=1;jettySize=auto;html=1;exitX=1;exitY=0.5;exitDx=0;exitDy=0;entryX=0;entryY=0.5;entryDx=0;entryDy=0;endArrow=none;endFill=0;" edge="1" parent="ksuWYuczVlK9YjMwTnbf-26" source="ksuWYuczVlK9YjMwTnbf-83" target="ksuWYuczVlK9YjMwTnbf-89">
          <mxGeometry relative="1" as="geometry" />
        </mxCell>
        <mxCell id="ksuWYuczVlK9YjMwTnbf-82" style="edgeStyle=orthogonalEdgeStyle;rounded=0;orthogonalLoop=1;jettySize=auto;html=1;exitX=0.5;exitY=1;exitDx=0;exitDy=0;entryX=0.5;entryY=0;entryDx=0;entryDy=0;endArrow=none;endFill=0;" edge="1" parent="ksuWYuczVlK9YjMwTnbf-26" source="ksuWYuczVlK9YjMwTnbf-83" target="ksuWYuczVlK9YjMwTnbf-106">
          <mxGeometry relative="1" as="geometry" />
        </mxCell>
        <mxCell id="ksuWYuczVlK9YjMwTnbf-83" value="&lt;span style=&quot;font-size: 39px&quot;&gt;p&lt;sub&gt;34&lt;/sub&gt;&lt;/span&gt;" style="ellipse;whiteSpace=wrap;html=1;aspect=fixed;fillColor=#fff2cc;strokeColor=#d6b656;" vertex="1" parent="ksuWYuczVlK9YjMwTnbf-26">
          <mxGeometry x="350" y="260" width="80" height="80" as="geometry" />
        </mxCell>
        <mxCell id="ksuWYuczVlK9YjMwTnbf-84" style="edgeStyle=orthogonalEdgeStyle;rounded=0;orthogonalLoop=1;jettySize=auto;html=1;exitX=1;exitY=0.5;exitDx=0;exitDy=0;entryX=0;entryY=0.5;entryDx=0;entryDy=0;endArrow=none;endFill=0;" edge="1" parent="ksuWYuczVlK9YjMwTnbf-26" source="ksuWYuczVlK9YjMwTnbf-86" target="ksuWYuczVlK9YjMwTnbf-92">
          <mxGeometry relative="1" as="geometry" />
        </mxCell>
        <mxCell id="ksuWYuczVlK9YjMwTnbf-85" style="edgeStyle=orthogonalEdgeStyle;rounded=0;orthogonalLoop=1;jettySize=auto;html=1;exitX=0.5;exitY=1;exitDx=0;exitDy=0;entryX=0.5;entryY=0;entryDx=0;entryDy=0;endArrow=none;endFill=0;" edge="1" parent="ksuWYuczVlK9YjMwTnbf-26" source="ksuWYuczVlK9YjMwTnbf-86" target="ksuWYuczVlK9YjMwTnbf-109">
          <mxGeometry relative="1" as="geometry" />
        </mxCell>
        <mxCell id="ksuWYuczVlK9YjMwTnbf-86" value="&lt;span style=&quot;font-size: 39px&quot;&gt;p&lt;sub&gt;36&lt;/sub&gt;&lt;/span&gt;" style="ellipse;whiteSpace=wrap;html=1;aspect=fixed;fillColor=#fff2cc;strokeColor=#d6b656;" vertex="1" parent="ksuWYuczVlK9YjMwTnbf-26">
          <mxGeometry x="581.9999999999999" y="260" width="80" height="80" as="geometry" />
        </mxCell>
        <mxCell id="ksuWYuczVlK9YjMwTnbf-87" style="edgeStyle=orthogonalEdgeStyle;rounded=0;orthogonalLoop=1;jettySize=auto;html=1;exitX=1;exitY=0.5;exitDx=0;exitDy=0;entryX=0;entryY=0.5;entryDx=0;entryDy=0;endArrow=none;endFill=0;" edge="1" parent="ksuWYuczVlK9YjMwTnbf-26" source="ksuWYuczVlK9YjMwTnbf-89" target="ksuWYuczVlK9YjMwTnbf-86">
          <mxGeometry relative="1" as="geometry" />
        </mxCell>
        <mxCell id="ksuWYuczVlK9YjMwTnbf-88" style="edgeStyle=orthogonalEdgeStyle;rounded=0;orthogonalLoop=1;jettySize=auto;html=1;exitX=0.5;exitY=1;exitDx=0;exitDy=0;entryX=0.5;entryY=0;entryDx=0;entryDy=0;endArrow=none;endFill=0;" edge="1" parent="ksuWYuczVlK9YjMwTnbf-26" source="ksuWYuczVlK9YjMwTnbf-89" target="ksuWYuczVlK9YjMwTnbf-112">
          <mxGeometry relative="1" as="geometry" />
        </mxCell>
        <mxCell id="ksuWYuczVlK9YjMwTnbf-89" value="&lt;span style=&quot;font-size: 39px&quot;&gt;p&lt;sub&gt;35&lt;/sub&gt;&lt;/span&gt;" style="ellipse;whiteSpace=wrap;html=1;aspect=fixed;fillColor=#fff2cc;strokeColor=#d6b656;" vertex="1" parent="ksuWYuczVlK9YjMwTnbf-26">
          <mxGeometry x="469.99999999999955" y="260" width="80" height="80" as="geometry" />
        </mxCell>
        <mxCell id="ksuWYuczVlK9YjMwTnbf-90" style="edgeStyle=orthogonalEdgeStyle;rounded=0;orthogonalLoop=1;jettySize=auto;html=1;exitX=1;exitY=0.5;exitDx=0;exitDy=0;entryX=0;entryY=0.5;entryDx=0;entryDy=0;endArrow=none;endFill=0;" edge="1" parent="ksuWYuczVlK9YjMwTnbf-26" source="ksuWYuczVlK9YjMwTnbf-92" target="ksuWYuczVlK9YjMwTnbf-74">
          <mxGeometry relative="1" as="geometry" />
        </mxCell>
        <mxCell id="ksuWYuczVlK9YjMwTnbf-91" style="edgeStyle=orthogonalEdgeStyle;rounded=0;orthogonalLoop=1;jettySize=auto;html=1;exitX=0.5;exitY=1;exitDx=0;exitDy=0;entryX=0.5;entryY=0;entryDx=0;entryDy=0;endArrow=none;endFill=0;" edge="1" parent="ksuWYuczVlK9YjMwTnbf-26" source="ksuWYuczVlK9YjMwTnbf-92" target="ksuWYuczVlK9YjMwTnbf-115">
          <mxGeometry relative="1" as="geometry" />
        </mxCell>
        <mxCell id="ksuWYuczVlK9YjMwTnbf-92" value="&lt;span style=&quot;font-size: 39px&quot;&gt;p&lt;sub&gt;37&lt;/sub&gt;&lt;/span&gt;" style="ellipse;whiteSpace=wrap;html=1;aspect=fixed;fillColor=#fff2cc;strokeColor=#d6b656;" vertex="1" parent="ksuWYuczVlK9YjMwTnbf-26">
          <mxGeometry x="711" y="260" width="80" height="80" as="geometry" />
        </mxCell>
        <mxCell id="ksuWYuczVlK9YjMwTnbf-93" style="edgeStyle=orthogonalEdgeStyle;rounded=0;orthogonalLoop=1;jettySize=auto;html=1;exitX=1;exitY=0.5;exitDx=0;exitDy=0;endArrow=none;endFill=0;" edge="1" parent="ksuWYuczVlK9YjMwTnbf-26" source="ksuWYuczVlK9YjMwTnbf-95" target="ksuWYuczVlK9YjMwTnbf-83">
          <mxGeometry relative="1" as="geometry" />
        </mxCell>
        <mxCell id="ksuWYuczVlK9YjMwTnbf-94" style="edgeStyle=orthogonalEdgeStyle;rounded=0;orthogonalLoop=1;jettySize=auto;html=1;exitX=0.5;exitY=1;exitDx=0;exitDy=0;entryX=0.5;entryY=0;entryDx=0;entryDy=0;endArrow=none;endFill=0;" edge="1" parent="ksuWYuczVlK9YjMwTnbf-26" source="ksuWYuczVlK9YjMwTnbf-95" target="ksuWYuczVlK9YjMwTnbf-118">
          <mxGeometry relative="1" as="geometry" />
        </mxCell>
        <mxCell id="ksuWYuczVlK9YjMwTnbf-95" value="&lt;span style=&quot;font-size: 39px&quot;&gt;p&lt;sub&gt;33&lt;/sub&gt;&lt;/span&gt;" style="ellipse;whiteSpace=wrap;html=1;aspect=fixed;fillColor=#fff2cc;strokeColor=#d6b656;" vertex="1" parent="ksuWYuczVlK9YjMwTnbf-26">
          <mxGeometry x="237" y="260" width="80" height="80" as="geometry" />
        </mxCell>
        <mxCell id="ksuWYuczVlK9YjMwTnbf-96" style="edgeStyle=orthogonalEdgeStyle;rounded=0;orthogonalLoop=1;jettySize=auto;html=1;exitX=0.5;exitY=1;exitDx=0;exitDy=0;entryX=0.5;entryY=0;entryDx=0;entryDy=0;endArrow=none;endFill=0;" edge="1" parent="ksuWYuczVlK9YjMwTnbf-26" source="ksuWYuczVlK9YjMwTnbf-97" target="ksuWYuczVlK9YjMwTnbf-120">
          <mxGeometry relative="1" as="geometry" />
        </mxCell>
        <mxCell id="ksuWYuczVlK9YjMwTnbf-97" value="&lt;span style=&quot;font-size: 39px&quot;&gt;p&lt;sub&gt;48&lt;/sub&gt;&lt;/span&gt;" style="ellipse;whiteSpace=wrap;html=1;aspect=fixed;fillColor=#fff2cc;strokeColor=#d6b656;" vertex="1" parent="ksuWYuczVlK9YjMwTnbf-26">
          <mxGeometry x="830" y="390" width="80" height="80" as="geometry" />
        </mxCell>
        <mxCell id="ksuWYuczVlK9YjMwTnbf-98" style="edgeStyle=orthogonalEdgeStyle;rounded=0;orthogonalLoop=1;jettySize=auto;html=1;exitX=1;exitY=0.5;exitDx=0;exitDy=0;entryX=0;entryY=0.5;entryDx=0;entryDy=0;endArrow=none;endFill=0;" edge="1" parent="ksuWYuczVlK9YjMwTnbf-26" source="ksuWYuczVlK9YjMwTnbf-100" target="ksuWYuczVlK9YjMwTnbf-118">
          <mxGeometry relative="1" as="geometry" />
        </mxCell>
        <mxCell id="ksuWYuczVlK9YjMwTnbf-99" style="edgeStyle=orthogonalEdgeStyle;rounded=0;orthogonalLoop=1;jettySize=auto;html=1;exitX=0.5;exitY=1;exitDx=0;exitDy=0;entryX=0.5;entryY=0;entryDx=0;entryDy=0;endArrow=none;endFill=0;" edge="1" parent="ksuWYuczVlK9YjMwTnbf-26" source="ksuWYuczVlK9YjMwTnbf-100" target="ksuWYuczVlK9YjMwTnbf-123">
          <mxGeometry relative="1" as="geometry" />
        </mxCell>
        <mxCell id="ksuWYuczVlK9YjMwTnbf-100" value="&lt;span style=&quot;font-size: 39px&quot;&gt;p&lt;sub&gt;42&lt;/sub&gt;&lt;/span&gt;" style="ellipse;whiteSpace=wrap;html=1;aspect=fixed;fillColor=#fff2cc;strokeColor=#d6b656;" vertex="1" parent="ksuWYuczVlK9YjMwTnbf-26">
          <mxGeometry x="119" y="390" width="80" height="80" as="geometry" />
        </mxCell>
        <mxCell id="ksuWYuczVlK9YjMwTnbf-101" style="edgeStyle=orthogonalEdgeStyle;rounded=0;orthogonalLoop=1;jettySize=auto;html=1;exitX=0.5;exitY=1;exitDx=0;exitDy=0;entryX=0.5;entryY=0;entryDx=0;entryDy=0;endArrow=none;endFill=0;" edge="1" parent="ksuWYuczVlK9YjMwTnbf-26" source="ksuWYuczVlK9YjMwTnbf-103" target="ksuWYuczVlK9YjMwTnbf-126">
          <mxGeometry relative="1" as="geometry" />
        </mxCell>
        <mxCell id="ksuWYuczVlK9YjMwTnbf-102" style="edgeStyle=orthogonalEdgeStyle;rounded=0;orthogonalLoop=1;jettySize=auto;html=1;exitX=1;exitY=0.5;exitDx=0;exitDy=0;entryX=0;entryY=0.5;entryDx=0;entryDy=0;endArrow=none;endFill=0;" edge="1" parent="ksuWYuczVlK9YjMwTnbf-26" source="ksuWYuczVlK9YjMwTnbf-103" target="ksuWYuczVlK9YjMwTnbf-100">
          <mxGeometry relative="1" as="geometry" />
        </mxCell>
        <mxCell id="ksuWYuczVlK9YjMwTnbf-103" value="&lt;span style=&quot;font-size: 39px&quot;&gt;p&lt;sub&gt;41&lt;/sub&gt;&lt;/span&gt;" style="ellipse;whiteSpace=wrap;html=1;aspect=fixed;fillColor=#fff2cc;strokeColor=#d6b656;" vertex="1" parent="ksuWYuczVlK9YjMwTnbf-26">
          <mxGeometry y="390" width="80" height="80" as="geometry" />
        </mxCell>
        <mxCell id="ksuWYuczVlK9YjMwTnbf-104" style="edgeStyle=orthogonalEdgeStyle;rounded=0;orthogonalLoop=1;jettySize=auto;html=1;exitX=1;exitY=0.5;exitDx=0;exitDy=0;entryX=0;entryY=0.5;entryDx=0;entryDy=0;endArrow=none;endFill=0;" edge="1" parent="ksuWYuczVlK9YjMwTnbf-26" source="ksuWYuczVlK9YjMwTnbf-106" target="ksuWYuczVlK9YjMwTnbf-112">
          <mxGeometry relative="1" as="geometry" />
        </mxCell>
        <mxCell id="ksuWYuczVlK9YjMwTnbf-105" style="edgeStyle=orthogonalEdgeStyle;rounded=0;orthogonalLoop=1;jettySize=auto;html=1;exitX=0.5;exitY=1;exitDx=0;exitDy=0;entryX=0.5;entryY=0;entryDx=0;entryDy=0;endArrow=none;endFill=0;" edge="1" parent="ksuWYuczVlK9YjMwTnbf-26" source="ksuWYuczVlK9YjMwTnbf-106" target="ksuWYuczVlK9YjMwTnbf-129">
          <mxGeometry relative="1" as="geometry" />
        </mxCell>
        <mxCell id="ksuWYuczVlK9YjMwTnbf-106" value="&lt;span style=&quot;font-size: 39px&quot;&gt;p&lt;sub&gt;44&lt;/sub&gt;&lt;/span&gt;" style="ellipse;whiteSpace=wrap;html=1;aspect=fixed;fillColor=#fff2cc;strokeColor=#d6b656;" vertex="1" parent="ksuWYuczVlK9YjMwTnbf-26">
          <mxGeometry x="350" y="390" width="80" height="80" as="geometry" />
        </mxCell>
        <mxCell id="ksuWYuczVlK9YjMwTnbf-107" style="edgeStyle=orthogonalEdgeStyle;rounded=0;orthogonalLoop=1;jettySize=auto;html=1;exitX=1;exitY=0.5;exitDx=0;exitDy=0;entryX=0;entryY=0.5;entryDx=0;entryDy=0;endArrow=none;endFill=0;" edge="1" parent="ksuWYuczVlK9YjMwTnbf-26" source="ksuWYuczVlK9YjMwTnbf-109" target="ksuWYuczVlK9YjMwTnbf-115">
          <mxGeometry relative="1" as="geometry" />
        </mxCell>
        <mxCell id="ksuWYuczVlK9YjMwTnbf-108" style="edgeStyle=orthogonalEdgeStyle;rounded=0;orthogonalLoop=1;jettySize=auto;html=1;exitX=0.5;exitY=1;exitDx=0;exitDy=0;entryX=0.5;entryY=0;entryDx=0;entryDy=0;endArrow=none;endFill=0;" edge="1" parent="ksuWYuczVlK9YjMwTnbf-26" source="ksuWYuczVlK9YjMwTnbf-109" target="ksuWYuczVlK9YjMwTnbf-132">
          <mxGeometry relative="1" as="geometry" />
        </mxCell>
        <mxCell id="ksuWYuczVlK9YjMwTnbf-109" value="&lt;span style=&quot;font-size: 39px&quot;&gt;p&lt;sub&gt;46&lt;/sub&gt;&lt;/span&gt;" style="ellipse;whiteSpace=wrap;html=1;aspect=fixed;fillColor=#fff2cc;strokeColor=#d6b656;" vertex="1" parent="ksuWYuczVlK9YjMwTnbf-26">
          <mxGeometry x="581.9999999999997" y="390" width="80" height="80" as="geometry" />
        </mxCell>
        <mxCell id="ksuWYuczVlK9YjMwTnbf-110" style="edgeStyle=orthogonalEdgeStyle;rounded=0;orthogonalLoop=1;jettySize=auto;html=1;exitX=1;exitY=0.5;exitDx=0;exitDy=0;entryX=0;entryY=0.5;entryDx=0;entryDy=0;endArrow=none;endFill=0;" edge="1" parent="ksuWYuczVlK9YjMwTnbf-26" source="ksuWYuczVlK9YjMwTnbf-112" target="ksuWYuczVlK9YjMwTnbf-109">
          <mxGeometry relative="1" as="geometry" />
        </mxCell>
        <mxCell id="ksuWYuczVlK9YjMwTnbf-111" style="edgeStyle=orthogonalEdgeStyle;rounded=0;orthogonalLoop=1;jettySize=auto;html=1;exitX=0.5;exitY=1;exitDx=0;exitDy=0;entryX=0.5;entryY=0;entryDx=0;entryDy=0;endArrow=none;endFill=0;" edge="1" parent="ksuWYuczVlK9YjMwTnbf-26" source="ksuWYuczVlK9YjMwTnbf-112" target="ksuWYuczVlK9YjMwTnbf-135">
          <mxGeometry relative="1" as="geometry" />
        </mxCell>
        <mxCell id="ksuWYuczVlK9YjMwTnbf-112" value="&lt;span style=&quot;font-size: 39px&quot;&gt;p&lt;sub&gt;45&lt;/sub&gt;&lt;/span&gt;" style="ellipse;whiteSpace=wrap;html=1;aspect=fixed;fillColor=#fff2cc;strokeColor=#d6b656;" vertex="1" parent="ksuWYuczVlK9YjMwTnbf-26">
          <mxGeometry x="469.99999999999966" y="390" width="80" height="80" as="geometry" />
        </mxCell>
        <mxCell id="ksuWYuczVlK9YjMwTnbf-113" style="edgeStyle=orthogonalEdgeStyle;rounded=0;orthogonalLoop=1;jettySize=auto;html=1;exitX=1;exitY=0.5;exitDx=0;exitDy=0;entryX=0;entryY=0.5;entryDx=0;entryDy=0;endArrow=none;endFill=0;" edge="1" parent="ksuWYuczVlK9YjMwTnbf-26" source="ksuWYuczVlK9YjMwTnbf-115" target="ksuWYuczVlK9YjMwTnbf-97">
          <mxGeometry relative="1" as="geometry" />
        </mxCell>
        <mxCell id="ksuWYuczVlK9YjMwTnbf-114" style="edgeStyle=orthogonalEdgeStyle;rounded=0;orthogonalLoop=1;jettySize=auto;html=1;exitX=0.5;exitY=1;exitDx=0;exitDy=0;endArrow=none;endFill=0;" edge="1" parent="ksuWYuczVlK9YjMwTnbf-26" source="ksuWYuczVlK9YjMwTnbf-115" target="ksuWYuczVlK9YjMwTnbf-138">
          <mxGeometry relative="1" as="geometry" />
        </mxCell>
        <mxCell id="ksuWYuczVlK9YjMwTnbf-115" value="&lt;span style=&quot;font-size: 39px&quot;&gt;p&lt;sub&gt;47&lt;/sub&gt;&lt;/span&gt;" style="ellipse;whiteSpace=wrap;html=1;aspect=fixed;fillColor=#fff2cc;strokeColor=#d6b656;" vertex="1" parent="ksuWYuczVlK9YjMwTnbf-26">
          <mxGeometry x="711" y="390" width="80" height="80" as="geometry" />
        </mxCell>
        <mxCell id="ksuWYuczVlK9YjMwTnbf-116" style="edgeStyle=orthogonalEdgeStyle;rounded=0;orthogonalLoop=1;jettySize=auto;html=1;exitX=1;exitY=0.5;exitDx=0;exitDy=0;entryX=0;entryY=0.5;entryDx=0;entryDy=0;endArrow=none;endFill=0;" edge="1" parent="ksuWYuczVlK9YjMwTnbf-26" source="ksuWYuczVlK9YjMwTnbf-118" target="ksuWYuczVlK9YjMwTnbf-106">
          <mxGeometry relative="1" as="geometry" />
        </mxCell>
        <mxCell id="ksuWYuczVlK9YjMwTnbf-117" style="edgeStyle=orthogonalEdgeStyle;rounded=0;orthogonalLoop=1;jettySize=auto;html=1;exitX=0.5;exitY=1;exitDx=0;exitDy=0;entryX=0.5;entryY=0;entryDx=0;entryDy=0;endArrow=none;endFill=0;" edge="1" parent="ksuWYuczVlK9YjMwTnbf-26" source="ksuWYuczVlK9YjMwTnbf-118" target="ksuWYuczVlK9YjMwTnbf-141">
          <mxGeometry relative="1" as="geometry" />
        </mxCell>
        <mxCell id="ksuWYuczVlK9YjMwTnbf-118" value="&lt;span style=&quot;font-size: 39px&quot;&gt;p&lt;sub&gt;43&lt;/sub&gt;&lt;/span&gt;" style="ellipse;whiteSpace=wrap;html=1;aspect=fixed;fillColor=#fff2cc;strokeColor=#d6b656;" vertex="1" parent="ksuWYuczVlK9YjMwTnbf-26">
          <mxGeometry x="237" y="390" width="80" height="80" as="geometry" />
        </mxCell>
        <mxCell id="ksuWYuczVlK9YjMwTnbf-119" style="edgeStyle=orthogonalEdgeStyle;rounded=0;orthogonalLoop=1;jettySize=auto;html=1;exitX=0.5;exitY=1;exitDx=0;exitDy=0;entryX=0.5;entryY=0;entryDx=0;entryDy=0;endArrow=none;endFill=0;" edge="1" parent="ksuWYuczVlK9YjMwTnbf-26" source="ksuWYuczVlK9YjMwTnbf-120" target="ksuWYuczVlK9YjMwTnbf-143">
          <mxGeometry relative="1" as="geometry" />
        </mxCell>
        <mxCell id="ksuWYuczVlK9YjMwTnbf-120" value="&lt;span style=&quot;font-size: 39px&quot;&gt;p&lt;sub&gt;58&lt;/sub&gt;&lt;/span&gt;" style="ellipse;whiteSpace=wrap;html=1;aspect=fixed;fillColor=#fff2cc;strokeColor=#d6b656;" vertex="1" parent="ksuWYuczVlK9YjMwTnbf-26">
          <mxGeometry x="830" y="520" width="80" height="80" as="geometry" />
        </mxCell>
        <mxCell id="ksuWYuczVlK9YjMwTnbf-121" style="edgeStyle=orthogonalEdgeStyle;rounded=0;orthogonalLoop=1;jettySize=auto;html=1;exitX=0.5;exitY=1;exitDx=0;exitDy=0;entryX=0.5;entryY=0;entryDx=0;entryDy=0;endArrow=none;endFill=0;" edge="1" parent="ksuWYuczVlK9YjMwTnbf-26" source="ksuWYuczVlK9YjMwTnbf-123" target="ksuWYuczVlK9YjMwTnbf-145">
          <mxGeometry relative="1" as="geometry" />
        </mxCell>
        <mxCell id="ksuWYuczVlK9YjMwTnbf-122" style="edgeStyle=orthogonalEdgeStyle;rounded=0;orthogonalLoop=1;jettySize=auto;html=1;exitX=1;exitY=0.5;exitDx=0;exitDy=0;entryX=0;entryY=0.5;entryDx=0;entryDy=0;endArrow=none;endFill=0;" edge="1" parent="ksuWYuczVlK9YjMwTnbf-26" source="ksuWYuczVlK9YjMwTnbf-123" target="ksuWYuczVlK9YjMwTnbf-141">
          <mxGeometry relative="1" as="geometry" />
        </mxCell>
        <mxCell id="ksuWYuczVlK9YjMwTnbf-123" value="&lt;span style=&quot;font-size: 39px&quot;&gt;p&lt;sub&gt;52&lt;/sub&gt;&lt;/span&gt;" style="ellipse;whiteSpace=wrap;html=1;aspect=fixed;fillColor=#fff2cc;strokeColor=#d6b656;" vertex="1" parent="ksuWYuczVlK9YjMwTnbf-26">
          <mxGeometry x="119" y="520" width="80" height="80" as="geometry" />
        </mxCell>
        <mxCell id="ksuWYuczVlK9YjMwTnbf-124" style="edgeStyle=orthogonalEdgeStyle;rounded=0;orthogonalLoop=1;jettySize=auto;html=1;exitX=0.5;exitY=1;exitDx=0;exitDy=0;entryX=0.5;entryY=0;entryDx=0;entryDy=0;endArrow=none;endFill=0;" edge="1" parent="ksuWYuczVlK9YjMwTnbf-26" source="ksuWYuczVlK9YjMwTnbf-126" target="ksuWYuczVlK9YjMwTnbf-148">
          <mxGeometry relative="1" as="geometry" />
        </mxCell>
        <mxCell id="ksuWYuczVlK9YjMwTnbf-125" style="edgeStyle=orthogonalEdgeStyle;rounded=0;orthogonalLoop=1;jettySize=auto;html=1;exitX=1;exitY=0.5;exitDx=0;exitDy=0;endArrow=none;endFill=0;" edge="1" parent="ksuWYuczVlK9YjMwTnbf-26" source="ksuWYuczVlK9YjMwTnbf-126" target="ksuWYuczVlK9YjMwTnbf-123">
          <mxGeometry relative="1" as="geometry" />
        </mxCell>
        <mxCell id="ksuWYuczVlK9YjMwTnbf-126" value="&lt;span style=&quot;font-size: 39px&quot;&gt;p&lt;sub&gt;51&lt;/sub&gt;&lt;/span&gt;" style="ellipse;whiteSpace=wrap;html=1;aspect=fixed;fillColor=#fff2cc;strokeColor=#d6b656;" vertex="1" parent="ksuWYuczVlK9YjMwTnbf-26">
          <mxGeometry y="520" width="80" height="80" as="geometry" />
        </mxCell>
        <mxCell id="ksuWYuczVlK9YjMwTnbf-127" style="edgeStyle=orthogonalEdgeStyle;rounded=0;orthogonalLoop=1;jettySize=auto;html=1;exitX=0.5;exitY=1;exitDx=0;exitDy=0;endArrow=none;endFill=0;" edge="1" parent="ksuWYuczVlK9YjMwTnbf-26" source="ksuWYuczVlK9YjMwTnbf-129" target="ksuWYuczVlK9YjMwTnbf-151">
          <mxGeometry relative="1" as="geometry" />
        </mxCell>
        <mxCell id="ksuWYuczVlK9YjMwTnbf-128" style="edgeStyle=orthogonalEdgeStyle;rounded=0;orthogonalLoop=1;jettySize=auto;html=1;exitX=1;exitY=0.5;exitDx=0;exitDy=0;entryX=0;entryY=0.5;entryDx=0;entryDy=0;endArrow=none;endFill=0;" edge="1" parent="ksuWYuczVlK9YjMwTnbf-26" source="ksuWYuczVlK9YjMwTnbf-129" target="ksuWYuczVlK9YjMwTnbf-135">
          <mxGeometry relative="1" as="geometry" />
        </mxCell>
        <mxCell id="ksuWYuczVlK9YjMwTnbf-129" value="&lt;span style=&quot;font-size: 39px&quot;&gt;p&lt;sub&gt;54&lt;/sub&gt;&lt;/span&gt;" style="ellipse;whiteSpace=wrap;html=1;aspect=fixed;fillColor=#fff2cc;strokeColor=#d6b656;" vertex="1" parent="ksuWYuczVlK9YjMwTnbf-26">
          <mxGeometry x="350" y="520" width="80" height="80" as="geometry" />
        </mxCell>
        <mxCell id="ksuWYuczVlK9YjMwTnbf-130" style="edgeStyle=orthogonalEdgeStyle;rounded=0;orthogonalLoop=1;jettySize=auto;html=1;exitX=1;exitY=0.5;exitDx=0;exitDy=0;entryX=0;entryY=0.5;entryDx=0;entryDy=0;endArrow=none;endFill=0;" edge="1" parent="ksuWYuczVlK9YjMwTnbf-26" source="ksuWYuczVlK9YjMwTnbf-132" target="ksuWYuczVlK9YjMwTnbf-138">
          <mxGeometry relative="1" as="geometry" />
        </mxCell>
        <mxCell id="ksuWYuczVlK9YjMwTnbf-131" style="edgeStyle=orthogonalEdgeStyle;rounded=0;orthogonalLoop=1;jettySize=auto;html=1;exitX=0.5;exitY=1;exitDx=0;exitDy=0;entryX=0.5;entryY=0;entryDx=0;entryDy=0;endArrow=none;endFill=0;" edge="1" parent="ksuWYuczVlK9YjMwTnbf-26" source="ksuWYuczVlK9YjMwTnbf-132" target="ksuWYuczVlK9YjMwTnbf-154">
          <mxGeometry relative="1" as="geometry" />
        </mxCell>
        <mxCell id="ksuWYuczVlK9YjMwTnbf-132" value="&lt;span style=&quot;font-size: 39px&quot;&gt;p&lt;sub&gt;56&lt;/sub&gt;&lt;/span&gt;" style="ellipse;whiteSpace=wrap;html=1;aspect=fixed;fillColor=#fff2cc;strokeColor=#d6b656;" vertex="1" parent="ksuWYuczVlK9YjMwTnbf-26">
          <mxGeometry x="582" y="520" width="80" height="80" as="geometry" />
        </mxCell>
        <mxCell id="ksuWYuczVlK9YjMwTnbf-133" style="edgeStyle=orthogonalEdgeStyle;rounded=0;orthogonalLoop=1;jettySize=auto;html=1;exitX=1;exitY=0.5;exitDx=0;exitDy=0;entryX=0;entryY=0.5;entryDx=0;entryDy=0;endArrow=none;endFill=0;" edge="1" parent="ksuWYuczVlK9YjMwTnbf-26" source="ksuWYuczVlK9YjMwTnbf-135" target="ksuWYuczVlK9YjMwTnbf-132">
          <mxGeometry relative="1" as="geometry" />
        </mxCell>
        <mxCell id="ksuWYuczVlK9YjMwTnbf-134" style="edgeStyle=orthogonalEdgeStyle;rounded=0;orthogonalLoop=1;jettySize=auto;html=1;exitX=0.5;exitY=1;exitDx=0;exitDy=0;entryX=0.5;entryY=0;entryDx=0;entryDy=0;endArrow=none;endFill=0;" edge="1" parent="ksuWYuczVlK9YjMwTnbf-26" source="ksuWYuczVlK9YjMwTnbf-135" target="ksuWYuczVlK9YjMwTnbf-157">
          <mxGeometry relative="1" as="geometry" />
        </mxCell>
        <mxCell id="ksuWYuczVlK9YjMwTnbf-135" value="&lt;span style=&quot;font-size: 39px&quot;&gt;p&lt;sub&gt;55&lt;/sub&gt;&lt;/span&gt;" style="ellipse;whiteSpace=wrap;html=1;aspect=fixed;fillColor=#fff2cc;strokeColor=#d6b656;" vertex="1" parent="ksuWYuczVlK9YjMwTnbf-26">
          <mxGeometry x="469.9999999999998" y="520" width="80" height="80" as="geometry" />
        </mxCell>
        <mxCell id="ksuWYuczVlK9YjMwTnbf-136" style="edgeStyle=orthogonalEdgeStyle;rounded=0;orthogonalLoop=1;jettySize=auto;html=1;exitX=1;exitY=0.5;exitDx=0;exitDy=0;endArrow=none;endFill=0;" edge="1" parent="ksuWYuczVlK9YjMwTnbf-26" source="ksuWYuczVlK9YjMwTnbf-138" target="ksuWYuczVlK9YjMwTnbf-120">
          <mxGeometry relative="1" as="geometry" />
        </mxCell>
        <mxCell id="ksuWYuczVlK9YjMwTnbf-137" style="edgeStyle=orthogonalEdgeStyle;rounded=0;orthogonalLoop=1;jettySize=auto;html=1;exitX=0.5;exitY=1;exitDx=0;exitDy=0;entryX=0.5;entryY=0;entryDx=0;entryDy=0;endArrow=none;endFill=0;" edge="1" parent="ksuWYuczVlK9YjMwTnbf-26" source="ksuWYuczVlK9YjMwTnbf-138" target="ksuWYuczVlK9YjMwTnbf-160">
          <mxGeometry relative="1" as="geometry" />
        </mxCell>
        <mxCell id="ksuWYuczVlK9YjMwTnbf-138" value="&lt;span style=&quot;font-size: 39px&quot;&gt;p&lt;sub&gt;57&lt;/sub&gt;&lt;/span&gt;" style="ellipse;whiteSpace=wrap;html=1;aspect=fixed;fillColor=#fff2cc;strokeColor=#d6b656;" vertex="1" parent="ksuWYuczVlK9YjMwTnbf-26">
          <mxGeometry x="711" y="520" width="80" height="80" as="geometry" />
        </mxCell>
        <mxCell id="ksuWYuczVlK9YjMwTnbf-139" style="edgeStyle=orthogonalEdgeStyle;rounded=0;orthogonalLoop=1;jettySize=auto;html=1;exitX=0.5;exitY=1;exitDx=0;exitDy=0;entryX=0.5;entryY=0;entryDx=0;entryDy=0;endArrow=none;endFill=0;" edge="1" parent="ksuWYuczVlK9YjMwTnbf-26" source="ksuWYuczVlK9YjMwTnbf-141" target="ksuWYuczVlK9YjMwTnbf-162">
          <mxGeometry relative="1" as="geometry" />
        </mxCell>
        <mxCell id="ksuWYuczVlK9YjMwTnbf-140" style="edgeStyle=orthogonalEdgeStyle;rounded=0;orthogonalLoop=1;jettySize=auto;html=1;exitX=1;exitY=0.5;exitDx=0;exitDy=0;endArrow=none;endFill=0;" edge="1" parent="ksuWYuczVlK9YjMwTnbf-26" source="ksuWYuczVlK9YjMwTnbf-141" target="ksuWYuczVlK9YjMwTnbf-129">
          <mxGeometry relative="1" as="geometry" />
        </mxCell>
        <mxCell id="ksuWYuczVlK9YjMwTnbf-141" value="&lt;span style=&quot;font-size: 39px&quot;&gt;p&lt;sub&gt;53&lt;/sub&gt;&lt;/span&gt;" style="ellipse;whiteSpace=wrap;html=1;aspect=fixed;fillColor=#fff2cc;strokeColor=#d6b656;" vertex="1" parent="ksuWYuczVlK9YjMwTnbf-26">
          <mxGeometry x="237" y="520" width="80" height="80" as="geometry" />
        </mxCell>
        <mxCell id="ksuWYuczVlK9YjMwTnbf-142" style="edgeStyle=orthogonalEdgeStyle;rounded=0;orthogonalLoop=1;jettySize=auto;html=1;exitX=0.5;exitY=1;exitDx=0;exitDy=0;entryX=0.5;entryY=0;entryDx=0;entryDy=0;endArrow=none;endFill=0;" edge="1" parent="ksuWYuczVlK9YjMwTnbf-26" source="ksuWYuczVlK9YjMwTnbf-143" target="ksuWYuczVlK9YjMwTnbf-164">
          <mxGeometry relative="1" as="geometry" />
        </mxCell>
        <mxCell id="ksuWYuczVlK9YjMwTnbf-143" value="&lt;span style=&quot;font-size: 39px&quot;&gt;p&lt;sub&gt;68&lt;/sub&gt;&lt;/span&gt;" style="ellipse;whiteSpace=wrap;html=1;aspect=fixed;fillColor=#fff2cc;strokeColor=#d6b656;" vertex="1" parent="ksuWYuczVlK9YjMwTnbf-26">
          <mxGeometry x="830" y="650" width="80" height="80" as="geometry" />
        </mxCell>
        <mxCell id="ksuWYuczVlK9YjMwTnbf-144" style="edgeStyle=orthogonalEdgeStyle;rounded=0;orthogonalLoop=1;jettySize=auto;html=1;exitX=0.5;exitY=1;exitDx=0;exitDy=0;entryX=0.5;entryY=0;entryDx=0;entryDy=0;endArrow=none;endFill=0;" edge="1" parent="ksuWYuczVlK9YjMwTnbf-26" source="ksuWYuczVlK9YjMwTnbf-145" target="ksuWYuczVlK9YjMwTnbf-167">
          <mxGeometry relative="1" as="geometry" />
        </mxCell>
        <mxCell id="ksuWYuczVlK9YjMwTnbf-145" value="&lt;span style=&quot;font-size: 39px&quot;&gt;p&lt;sub&gt;62&lt;/sub&gt;&lt;/span&gt;" style="ellipse;whiteSpace=wrap;html=1;aspect=fixed;fillColor=#fff2cc;strokeColor=#d6b656;" vertex="1" parent="ksuWYuczVlK9YjMwTnbf-26">
          <mxGeometry x="119" y="650" width="80" height="80" as="geometry" />
        </mxCell>
        <mxCell id="ksuWYuczVlK9YjMwTnbf-146" style="edgeStyle=orthogonalEdgeStyle;rounded=0;orthogonalLoop=1;jettySize=auto;html=1;exitX=0.5;exitY=1;exitDx=0;exitDy=0;entryX=0.5;entryY=0;entryDx=0;entryDy=0;endArrow=none;endFill=0;" edge="1" parent="ksuWYuczVlK9YjMwTnbf-26" source="ksuWYuczVlK9YjMwTnbf-148" target="ksuWYuczVlK9YjMwTnbf-170">
          <mxGeometry relative="1" as="geometry" />
        </mxCell>
        <mxCell id="ksuWYuczVlK9YjMwTnbf-147" style="edgeStyle=orthogonalEdgeStyle;rounded=0;orthogonalLoop=1;jettySize=auto;html=1;exitX=1;exitY=0.5;exitDx=0;exitDy=0;entryX=0;entryY=0.5;entryDx=0;entryDy=0;endArrow=none;endFill=0;" edge="1" parent="ksuWYuczVlK9YjMwTnbf-26" source="ksuWYuczVlK9YjMwTnbf-148" target="ksuWYuczVlK9YjMwTnbf-145">
          <mxGeometry relative="1" as="geometry" />
        </mxCell>
        <mxCell id="ksuWYuczVlK9YjMwTnbf-148" value="&lt;span style=&quot;font-size: 39px&quot;&gt;p&lt;sub&gt;61&lt;/sub&gt;&lt;/span&gt;" style="ellipse;whiteSpace=wrap;html=1;aspect=fixed;fillColor=#fff2cc;strokeColor=#d6b656;" vertex="1" parent="ksuWYuczVlK9YjMwTnbf-26">
          <mxGeometry y="650" width="80" height="80" as="geometry" />
        </mxCell>
        <mxCell id="ksuWYuczVlK9YjMwTnbf-149" style="edgeStyle=orthogonalEdgeStyle;rounded=0;orthogonalLoop=1;jettySize=auto;html=1;exitX=1;exitY=0.5;exitDx=0;exitDy=0;entryX=0;entryY=0.5;entryDx=0;entryDy=0;endArrow=none;endFill=0;" edge="1" parent="ksuWYuczVlK9YjMwTnbf-26" source="ksuWYuczVlK9YjMwTnbf-151" target="ksuWYuczVlK9YjMwTnbf-157">
          <mxGeometry relative="1" as="geometry" />
        </mxCell>
        <mxCell id="ksuWYuczVlK9YjMwTnbf-150" style="edgeStyle=orthogonalEdgeStyle;rounded=0;orthogonalLoop=1;jettySize=auto;html=1;exitX=0.5;exitY=1;exitDx=0;exitDy=0;entryX=0.5;entryY=0;entryDx=0;entryDy=0;endArrow=none;endFill=0;" edge="1" parent="ksuWYuczVlK9YjMwTnbf-26" source="ksuWYuczVlK9YjMwTnbf-151" target="ksuWYuczVlK9YjMwTnbf-173">
          <mxGeometry relative="1" as="geometry" />
        </mxCell>
        <mxCell id="ksuWYuczVlK9YjMwTnbf-151" value="&lt;span style=&quot;font-size: 39px&quot;&gt;p&lt;sub&gt;64&lt;/sub&gt;&lt;/span&gt;" style="ellipse;whiteSpace=wrap;html=1;aspect=fixed;fillColor=#fff2cc;strokeColor=#d6b656;" vertex="1" parent="ksuWYuczVlK9YjMwTnbf-26">
          <mxGeometry x="350" y="650" width="80" height="80" as="geometry" />
        </mxCell>
        <mxCell id="ksuWYuczVlK9YjMwTnbf-152" style="edgeStyle=orthogonalEdgeStyle;rounded=0;orthogonalLoop=1;jettySize=auto;html=1;exitX=1;exitY=0.5;exitDx=0;exitDy=0;entryX=0;entryY=0.5;entryDx=0;entryDy=0;endArrow=none;endFill=0;" edge="1" parent="ksuWYuczVlK9YjMwTnbf-26" source="ksuWYuczVlK9YjMwTnbf-154" target="ksuWYuczVlK9YjMwTnbf-160">
          <mxGeometry relative="1" as="geometry" />
        </mxCell>
        <mxCell id="ksuWYuczVlK9YjMwTnbf-153" style="edgeStyle=orthogonalEdgeStyle;rounded=0;orthogonalLoop=1;jettySize=auto;html=1;exitX=0.5;exitY=1;exitDx=0;exitDy=0;entryX=0.5;entryY=0;entryDx=0;entryDy=0;endArrow=none;endFill=0;" edge="1" parent="ksuWYuczVlK9YjMwTnbf-26" source="ksuWYuczVlK9YjMwTnbf-154" target="ksuWYuczVlK9YjMwTnbf-176">
          <mxGeometry relative="1" as="geometry" />
        </mxCell>
        <mxCell id="ksuWYuczVlK9YjMwTnbf-154" value="&lt;span style=&quot;font-size: 39px&quot;&gt;p&lt;sub&gt;66&lt;/sub&gt;&lt;/span&gt;" style="ellipse;whiteSpace=wrap;html=1;aspect=fixed;fillColor=#fff2cc;strokeColor=#d6b656;" vertex="1" parent="ksuWYuczVlK9YjMwTnbf-26">
          <mxGeometry x="581.9999999999995" y="650" width="80" height="80" as="geometry" />
        </mxCell>
        <mxCell id="ksuWYuczVlK9YjMwTnbf-155" style="edgeStyle=orthogonalEdgeStyle;rounded=0;orthogonalLoop=1;jettySize=auto;html=1;exitX=1;exitY=0.5;exitDx=0;exitDy=0;entryX=0;entryY=0.5;entryDx=0;entryDy=0;endArrow=none;endFill=0;" edge="1" parent="ksuWYuczVlK9YjMwTnbf-26" source="ksuWYuczVlK9YjMwTnbf-157" target="ksuWYuczVlK9YjMwTnbf-154">
          <mxGeometry relative="1" as="geometry" />
        </mxCell>
        <mxCell id="ksuWYuczVlK9YjMwTnbf-156" style="edgeStyle=orthogonalEdgeStyle;rounded=0;orthogonalLoop=1;jettySize=auto;html=1;exitX=0.5;exitY=1;exitDx=0;exitDy=0;entryX=0.5;entryY=0;entryDx=0;entryDy=0;endArrow=none;endFill=0;" edge="1" parent="ksuWYuczVlK9YjMwTnbf-26" source="ksuWYuczVlK9YjMwTnbf-157" target="ksuWYuczVlK9YjMwTnbf-179">
          <mxGeometry relative="1" as="geometry" />
        </mxCell>
        <mxCell id="ksuWYuczVlK9YjMwTnbf-157" value="&lt;span style=&quot;font-size: 39px&quot;&gt;p&lt;sub&gt;65&lt;/sub&gt;&lt;/span&gt;" style="ellipse;whiteSpace=wrap;html=1;aspect=fixed;fillColor=#fff2cc;strokeColor=#d6b656;" vertex="1" parent="ksuWYuczVlK9YjMwTnbf-26">
          <mxGeometry x="469.9999999999999" y="650" width="80" height="80" as="geometry" />
        </mxCell>
        <mxCell id="ksuWYuczVlK9YjMwTnbf-158" style="edgeStyle=orthogonalEdgeStyle;rounded=0;orthogonalLoop=1;jettySize=auto;html=1;exitX=1;exitY=0.5;exitDx=0;exitDy=0;entryX=0;entryY=0.5;entryDx=0;entryDy=0;endArrow=none;endFill=0;" edge="1" parent="ksuWYuczVlK9YjMwTnbf-26" source="ksuWYuczVlK9YjMwTnbf-160" target="ksuWYuczVlK9YjMwTnbf-143">
          <mxGeometry relative="1" as="geometry" />
        </mxCell>
        <mxCell id="ksuWYuczVlK9YjMwTnbf-159" style="edgeStyle=orthogonalEdgeStyle;rounded=0;orthogonalLoop=1;jettySize=auto;html=1;exitX=0.5;exitY=1;exitDx=0;exitDy=0;entryX=0.5;entryY=0;entryDx=0;entryDy=0;endArrow=none;endFill=0;" edge="1" parent="ksuWYuczVlK9YjMwTnbf-26" source="ksuWYuczVlK9YjMwTnbf-160" target="ksuWYuczVlK9YjMwTnbf-181">
          <mxGeometry relative="1" as="geometry" />
        </mxCell>
        <mxCell id="ksuWYuczVlK9YjMwTnbf-160" value="&lt;span style=&quot;font-size: 39px&quot;&gt;p&lt;sub&gt;67&lt;/sub&gt;&lt;/span&gt;" style="ellipse;whiteSpace=wrap;html=1;aspect=fixed;fillColor=#fff2cc;strokeColor=#d6b656;" vertex="1" parent="ksuWYuczVlK9YjMwTnbf-26">
          <mxGeometry x="711" y="650" width="80" height="80" as="geometry" />
        </mxCell>
        <mxCell id="ksuWYuczVlK9YjMwTnbf-161" style="edgeStyle=orthogonalEdgeStyle;rounded=0;orthogonalLoop=1;jettySize=auto;html=1;exitX=0.5;exitY=1;exitDx=0;exitDy=0;entryX=0.5;entryY=0;entryDx=0;entryDy=0;endArrow=none;endFill=0;" edge="1" parent="ksuWYuczVlK9YjMwTnbf-26" source="ksuWYuczVlK9YjMwTnbf-162" target="ksuWYuczVlK9YjMwTnbf-184">
          <mxGeometry relative="1" as="geometry" />
        </mxCell>
        <mxCell id="ksuWYuczVlK9YjMwTnbf-162" value="&lt;span style=&quot;font-size: 39px&quot;&gt;p&lt;sub&gt;63&lt;/sub&gt;&lt;/span&gt;" style="ellipse;whiteSpace=wrap;html=1;aspect=fixed;fillColor=#fff2cc;strokeColor=#d6b656;" vertex="1" parent="ksuWYuczVlK9YjMwTnbf-26">
          <mxGeometry x="237" y="650" width="80" height="80" as="geometry" />
        </mxCell>
        <mxCell id="ksuWYuczVlK9YjMwTnbf-163" style="edgeStyle=orthogonalEdgeStyle;rounded=0;orthogonalLoop=1;jettySize=auto;html=1;exitX=0.5;exitY=1;exitDx=0;exitDy=0;entryX=0.5;entryY=0;entryDx=0;entryDy=0;endArrow=none;endFill=0;" edge="1" parent="ksuWYuczVlK9YjMwTnbf-26" source="ksuWYuczVlK9YjMwTnbf-164" target="ksuWYuczVlK9YjMwTnbf-185">
          <mxGeometry relative="1" as="geometry" />
        </mxCell>
        <mxCell id="ksuWYuczVlK9YjMwTnbf-164" value="&lt;span style=&quot;font-size: 39px&quot;&gt;p&lt;sub&gt;78&lt;/sub&gt;&lt;/span&gt;" style="ellipse;whiteSpace=wrap;html=1;aspect=fixed;fillColor=#fff2cc;strokeColor=#d6b656;" vertex="1" parent="ksuWYuczVlK9YjMwTnbf-26">
          <mxGeometry x="830" y="780" width="80" height="80" as="geometry" />
        </mxCell>
        <mxCell id="ksuWYuczVlK9YjMwTnbf-165" style="edgeStyle=orthogonalEdgeStyle;rounded=0;orthogonalLoop=1;jettySize=auto;html=1;exitX=1;exitY=0.5;exitDx=0;exitDy=0;entryX=0;entryY=0.5;entryDx=0;entryDy=0;endArrow=none;endFill=0;" edge="1" parent="ksuWYuczVlK9YjMwTnbf-26" source="ksuWYuczVlK9YjMwTnbf-167" target="ksuWYuczVlK9YjMwTnbf-184">
          <mxGeometry relative="1" as="geometry" />
        </mxCell>
        <mxCell id="ksuWYuczVlK9YjMwTnbf-166" style="edgeStyle=orthogonalEdgeStyle;rounded=0;orthogonalLoop=1;jettySize=auto;html=1;exitX=0.5;exitY=1;exitDx=0;exitDy=0;endArrow=none;endFill=0;" edge="1" parent="ksuWYuczVlK9YjMwTnbf-26" source="ksuWYuczVlK9YjMwTnbf-167" target="ksuWYuczVlK9YjMwTnbf-187">
          <mxGeometry relative="1" as="geometry" />
        </mxCell>
        <mxCell id="ksuWYuczVlK9YjMwTnbf-167" value="&lt;span style=&quot;font-size: 39px&quot;&gt;p&lt;sub&gt;72&lt;/sub&gt;&lt;/span&gt;" style="ellipse;whiteSpace=wrap;html=1;aspect=fixed;fillColor=#fff2cc;strokeColor=#d6b656;" vertex="1" parent="ksuWYuczVlK9YjMwTnbf-26">
          <mxGeometry x="119" y="780" width="80" height="80" as="geometry" />
        </mxCell>
        <mxCell id="ksuWYuczVlK9YjMwTnbf-168" style="edgeStyle=orthogonalEdgeStyle;rounded=0;orthogonalLoop=1;jettySize=auto;html=1;exitX=0.5;exitY=1;exitDx=0;exitDy=0;entryX=0.5;entryY=0;entryDx=0;entryDy=0;endArrow=none;endFill=0;" edge="1" parent="ksuWYuczVlK9YjMwTnbf-26" source="ksuWYuczVlK9YjMwTnbf-170" target="ksuWYuczVlK9YjMwTnbf-189">
          <mxGeometry relative="1" as="geometry" />
        </mxCell>
        <mxCell id="ksuWYuczVlK9YjMwTnbf-169" style="edgeStyle=orthogonalEdgeStyle;rounded=0;orthogonalLoop=1;jettySize=auto;html=1;exitX=1;exitY=0.5;exitDx=0;exitDy=0;entryX=0;entryY=0.5;entryDx=0;entryDy=0;endArrow=none;endFill=0;" edge="1" parent="ksuWYuczVlK9YjMwTnbf-26" source="ksuWYuczVlK9YjMwTnbf-170" target="ksuWYuczVlK9YjMwTnbf-167">
          <mxGeometry relative="1" as="geometry" />
        </mxCell>
        <mxCell id="ksuWYuczVlK9YjMwTnbf-170" value="&lt;span style=&quot;font-size: 39px&quot;&gt;p&lt;sub&gt;71&lt;/sub&gt;&lt;/span&gt;" style="ellipse;whiteSpace=wrap;html=1;aspect=fixed;fillColor=#fff2cc;strokeColor=#d6b656;" vertex="1" parent="ksuWYuczVlK9YjMwTnbf-26">
          <mxGeometry y="780" width="80" height="80" as="geometry" />
        </mxCell>
        <mxCell id="ksuWYuczVlK9YjMwTnbf-171" style="edgeStyle=orthogonalEdgeStyle;rounded=0;orthogonalLoop=1;jettySize=auto;html=1;exitX=1;exitY=0.5;exitDx=0;exitDy=0;entryX=0;entryY=0.5;entryDx=0;entryDy=0;endArrow=none;endFill=0;" edge="1" parent="ksuWYuczVlK9YjMwTnbf-26" source="ksuWYuczVlK9YjMwTnbf-173" target="ksuWYuczVlK9YjMwTnbf-179">
          <mxGeometry relative="1" as="geometry" />
        </mxCell>
        <mxCell id="ksuWYuczVlK9YjMwTnbf-172" style="edgeStyle=orthogonalEdgeStyle;rounded=0;orthogonalLoop=1;jettySize=auto;html=1;exitX=0.5;exitY=1;exitDx=0;exitDy=0;entryX=0.5;entryY=0;entryDx=0;entryDy=0;endArrow=none;endFill=0;" edge="1" parent="ksuWYuczVlK9YjMwTnbf-26" source="ksuWYuczVlK9YjMwTnbf-173" target="ksuWYuczVlK9YjMwTnbf-191">
          <mxGeometry relative="1" as="geometry" />
        </mxCell>
        <mxCell id="ksuWYuczVlK9YjMwTnbf-173" value="&lt;span style=&quot;font-size: 39px&quot;&gt;p&lt;sub&gt;74&lt;/sub&gt;&lt;/span&gt;" style="ellipse;whiteSpace=wrap;html=1;aspect=fixed;fillColor=#fff2cc;strokeColor=#d6b656;" vertex="1" parent="ksuWYuczVlK9YjMwTnbf-26">
          <mxGeometry x="350" y="780" width="80" height="80" as="geometry" />
        </mxCell>
        <mxCell id="ksuWYuczVlK9YjMwTnbf-174" style="edgeStyle=orthogonalEdgeStyle;rounded=0;orthogonalLoop=1;jettySize=auto;html=1;exitX=1;exitY=0.5;exitDx=0;exitDy=0;endArrow=none;endFill=0;" edge="1" parent="ksuWYuczVlK9YjMwTnbf-26" source="ksuWYuczVlK9YjMwTnbf-176" target="ksuWYuczVlK9YjMwTnbf-181">
          <mxGeometry relative="1" as="geometry" />
        </mxCell>
        <mxCell id="ksuWYuczVlK9YjMwTnbf-175" style="edgeStyle=orthogonalEdgeStyle;rounded=0;orthogonalLoop=1;jettySize=auto;html=1;exitX=0.5;exitY=1;exitDx=0;exitDy=0;entryX=0.5;entryY=0;entryDx=0;entryDy=0;endArrow=none;endFill=0;" edge="1" parent="ksuWYuczVlK9YjMwTnbf-26" source="ksuWYuczVlK9YjMwTnbf-176" target="ksuWYuczVlK9YjMwTnbf-193">
          <mxGeometry relative="1" as="geometry" />
        </mxCell>
        <mxCell id="ksuWYuczVlK9YjMwTnbf-176" value="&lt;span style=&quot;font-size: 39px&quot;&gt;p&lt;sub&gt;76&lt;/sub&gt;&lt;/span&gt;" style="ellipse;whiteSpace=wrap;html=1;aspect=fixed;fillColor=#fff2cc;strokeColor=#d6b656;" vertex="1" parent="ksuWYuczVlK9YjMwTnbf-26">
          <mxGeometry x="581.9999999999997" y="780" width="80" height="80" as="geometry" />
        </mxCell>
        <mxCell id="ksuWYuczVlK9YjMwTnbf-177" style="edgeStyle=orthogonalEdgeStyle;rounded=0;orthogonalLoop=1;jettySize=auto;html=1;exitX=1;exitY=0.5;exitDx=0;exitDy=0;endArrow=none;endFill=0;" edge="1" parent="ksuWYuczVlK9YjMwTnbf-26" source="ksuWYuczVlK9YjMwTnbf-179" target="ksuWYuczVlK9YjMwTnbf-176">
          <mxGeometry relative="1" as="geometry" />
        </mxCell>
        <mxCell id="ksuWYuczVlK9YjMwTnbf-178" style="edgeStyle=orthogonalEdgeStyle;rounded=0;orthogonalLoop=1;jettySize=auto;html=1;exitX=0.5;exitY=1;exitDx=0;exitDy=0;entryX=0.5;entryY=0;entryDx=0;entryDy=0;endArrow=none;endFill=0;" edge="1" parent="ksuWYuczVlK9YjMwTnbf-26" source="ksuWYuczVlK9YjMwTnbf-179" target="ksuWYuczVlK9YjMwTnbf-195">
          <mxGeometry relative="1" as="geometry" />
        </mxCell>
        <mxCell id="ksuWYuczVlK9YjMwTnbf-179" value="&lt;span style=&quot;font-size: 39px&quot;&gt;p&lt;sub&gt;75&lt;/sub&gt;&lt;/span&gt;" style="ellipse;whiteSpace=wrap;html=1;aspect=fixed;fillColor=#fff2cc;strokeColor=#d6b656;" vertex="1" parent="ksuWYuczVlK9YjMwTnbf-26">
          <mxGeometry x="470" y="780" width="80" height="80" as="geometry" />
        </mxCell>
        <mxCell id="ksuWYuczVlK9YjMwTnbf-180" style="edgeStyle=orthogonalEdgeStyle;rounded=0;orthogonalLoop=1;jettySize=auto;html=1;exitX=0.5;exitY=1;exitDx=0;exitDy=0;entryX=0.5;entryY=0;entryDx=0;entryDy=0;endArrow=none;endFill=0;" edge="1" parent="ksuWYuczVlK9YjMwTnbf-26" source="ksuWYuczVlK9YjMwTnbf-181" target="ksuWYuczVlK9YjMwTnbf-197">
          <mxGeometry relative="1" as="geometry" />
        </mxCell>
        <mxCell id="ksuWYuczVlK9YjMwTnbf-181" value="&lt;span style=&quot;font-size: 39px&quot;&gt;p&lt;sub&gt;77&lt;/sub&gt;&lt;/span&gt;" style="ellipse;whiteSpace=wrap;html=1;aspect=fixed;fillColor=#fff2cc;strokeColor=#d6b656;" vertex="1" parent="ksuWYuczVlK9YjMwTnbf-26">
          <mxGeometry x="711" y="780" width="80" height="80" as="geometry" />
        </mxCell>
        <mxCell id="ksuWYuczVlK9YjMwTnbf-182" style="edgeStyle=orthogonalEdgeStyle;rounded=0;orthogonalLoop=1;jettySize=auto;html=1;exitX=1;exitY=0.5;exitDx=0;exitDy=0;endArrow=none;endFill=0;" edge="1" parent="ksuWYuczVlK9YjMwTnbf-26" source="ksuWYuczVlK9YjMwTnbf-184" target="ksuWYuczVlK9YjMwTnbf-173">
          <mxGeometry relative="1" as="geometry" />
        </mxCell>
        <mxCell id="ksuWYuczVlK9YjMwTnbf-183" style="edgeStyle=orthogonalEdgeStyle;rounded=0;orthogonalLoop=1;jettySize=auto;html=1;exitX=0.5;exitY=1;exitDx=0;exitDy=0;entryX=0.5;entryY=0;entryDx=0;entryDy=0;endArrow=none;endFill=0;" edge="1" parent="ksuWYuczVlK9YjMwTnbf-26" source="ksuWYuczVlK9YjMwTnbf-184" target="ksuWYuczVlK9YjMwTnbf-199">
          <mxGeometry relative="1" as="geometry" />
        </mxCell>
        <mxCell id="ksuWYuczVlK9YjMwTnbf-184" value="&lt;span style=&quot;font-size: 39px&quot;&gt;p&lt;sub&gt;73&lt;/sub&gt;&lt;/span&gt;" style="ellipse;whiteSpace=wrap;html=1;aspect=fixed;fillColor=#fff2cc;strokeColor=#d6b656;" vertex="1" parent="ksuWYuczVlK9YjMwTnbf-26">
          <mxGeometry x="237" y="780" width="80" height="80" as="geometry" />
        </mxCell>
        <mxCell id="ksuWYuczVlK9YjMwTnbf-185" value="&lt;span style=&quot;font-size: 39px&quot;&gt;p&lt;sub&gt;88&lt;/sub&gt;&lt;/span&gt;" style="ellipse;whiteSpace=wrap;html=1;aspect=fixed;fillColor=#fff2cc;strokeColor=#d6b656;" vertex="1" parent="ksuWYuczVlK9YjMwTnbf-26">
          <mxGeometry x="830" y="910" width="80" height="80" as="geometry" />
        </mxCell>
        <mxCell id="ksuWYuczVlK9YjMwTnbf-186" style="edgeStyle=orthogonalEdgeStyle;rounded=0;orthogonalLoop=1;jettySize=auto;html=1;exitX=1;exitY=0.5;exitDx=0;exitDy=0;entryX=0;entryY=0.5;entryDx=0;entryDy=0;endArrow=none;endFill=0;" edge="1" parent="ksuWYuczVlK9YjMwTnbf-26" source="ksuWYuczVlK9YjMwTnbf-187" target="ksuWYuczVlK9YjMwTnbf-199">
          <mxGeometry relative="1" as="geometry" />
        </mxCell>
        <mxCell id="ksuWYuczVlK9YjMwTnbf-187" value="&lt;span style=&quot;font-size: 39px&quot;&gt;p&lt;sub&gt;82&lt;/sub&gt;&lt;/span&gt;" style="ellipse;whiteSpace=wrap;html=1;aspect=fixed;fillColor=#fff2cc;strokeColor=#d6b656;" vertex="1" parent="ksuWYuczVlK9YjMwTnbf-26">
          <mxGeometry x="119" y="910" width="80" height="80" as="geometry" />
        </mxCell>
        <mxCell id="ksuWYuczVlK9YjMwTnbf-188" style="edgeStyle=orthogonalEdgeStyle;rounded=0;orthogonalLoop=1;jettySize=auto;html=1;exitX=1;exitY=0.5;exitDx=0;exitDy=0;entryX=0;entryY=0.5;entryDx=0;entryDy=0;endArrow=none;endFill=0;" edge="1" parent="ksuWYuczVlK9YjMwTnbf-26" source="ksuWYuczVlK9YjMwTnbf-189" target="ksuWYuczVlK9YjMwTnbf-187">
          <mxGeometry relative="1" as="geometry" />
        </mxCell>
        <mxCell id="ksuWYuczVlK9YjMwTnbf-189" value="&lt;span style=&quot;font-size: 39px&quot;&gt;p&lt;sub&gt;81&lt;/sub&gt;&lt;/span&gt;" style="ellipse;whiteSpace=wrap;html=1;aspect=fixed;fillColor=#fff2cc;strokeColor=#d6b656;" vertex="1" parent="ksuWYuczVlK9YjMwTnbf-26">
          <mxGeometry y="910" width="80" height="80" as="geometry" />
        </mxCell>
        <mxCell id="ksuWYuczVlK9YjMwTnbf-190" style="edgeStyle=orthogonalEdgeStyle;rounded=0;orthogonalLoop=1;jettySize=auto;html=1;exitX=1;exitY=0.5;exitDx=0;exitDy=0;entryX=0;entryY=0.5;entryDx=0;entryDy=0;endArrow=none;endFill=0;" edge="1" parent="ksuWYuczVlK9YjMwTnbf-26" source="ksuWYuczVlK9YjMwTnbf-191" target="ksuWYuczVlK9YjMwTnbf-195">
          <mxGeometry relative="1" as="geometry" />
        </mxCell>
        <mxCell id="ksuWYuczVlK9YjMwTnbf-191" value="&lt;span style=&quot;font-size: 39px&quot;&gt;p&lt;sub&gt;84&lt;/sub&gt;&lt;/span&gt;" style="ellipse;whiteSpace=wrap;html=1;aspect=fixed;fillColor=#fff2cc;strokeColor=#d6b656;" vertex="1" parent="ksuWYuczVlK9YjMwTnbf-26">
          <mxGeometry x="350" y="910" width="80" height="80" as="geometry" />
        </mxCell>
        <mxCell id="ksuWYuczVlK9YjMwTnbf-192" style="edgeStyle=orthogonalEdgeStyle;rounded=0;orthogonalLoop=1;jettySize=auto;html=1;exitX=1;exitY=0.5;exitDx=0;exitDy=0;entryX=0;entryY=0.5;entryDx=0;entryDy=0;endArrow=none;endFill=0;" edge="1" parent="ksuWYuczVlK9YjMwTnbf-26" source="ksuWYuczVlK9YjMwTnbf-193" target="ksuWYuczVlK9YjMwTnbf-197">
          <mxGeometry relative="1" as="geometry" />
        </mxCell>
        <mxCell id="ksuWYuczVlK9YjMwTnbf-193" value="&lt;span style=&quot;font-size: 39px&quot;&gt;p&lt;sub&gt;86&lt;/sub&gt;&lt;/span&gt;" style="ellipse;whiteSpace=wrap;html=1;aspect=fixed;fillColor=#fff2cc;strokeColor=#d6b656;" vertex="1" parent="ksuWYuczVlK9YjMwTnbf-26">
          <mxGeometry x="581.9999999999998" y="910" width="80" height="80" as="geometry" />
        </mxCell>
        <mxCell id="ksuWYuczVlK9YjMwTnbf-194" style="edgeStyle=orthogonalEdgeStyle;rounded=0;orthogonalLoop=1;jettySize=auto;html=1;exitX=1;exitY=0.5;exitDx=0;exitDy=0;endArrow=none;endFill=0;" edge="1" parent="ksuWYuczVlK9YjMwTnbf-26" source="ksuWYuczVlK9YjMwTnbf-195" target="ksuWYuczVlK9YjMwTnbf-193">
          <mxGeometry relative="1" as="geometry" />
        </mxCell>
        <mxCell id="ksuWYuczVlK9YjMwTnbf-195" value="&lt;span style=&quot;font-size: 39px&quot;&gt;p&lt;sub&gt;85&lt;/sub&gt;&lt;/span&gt;" style="ellipse;whiteSpace=wrap;html=1;aspect=fixed;fillColor=#fff2cc;strokeColor=#d6b656;" vertex="1" parent="ksuWYuczVlK9YjMwTnbf-26">
          <mxGeometry x="469.99999999999955" y="910" width="80" height="80" as="geometry" />
        </mxCell>
        <mxCell id="ksuWYuczVlK9YjMwTnbf-196" style="edgeStyle=orthogonalEdgeStyle;rounded=0;orthogonalLoop=1;jettySize=auto;html=1;exitX=1;exitY=0.5;exitDx=0;exitDy=0;entryX=0;entryY=0.5;entryDx=0;entryDy=0;endArrow=none;endFill=0;" edge="1" parent="ksuWYuczVlK9YjMwTnbf-26" source="ksuWYuczVlK9YjMwTnbf-197" target="ksuWYuczVlK9YjMwTnbf-185">
          <mxGeometry relative="1" as="geometry" />
        </mxCell>
        <mxCell id="ksuWYuczVlK9YjMwTnbf-197" value="&lt;span style=&quot;font-size: 39px&quot;&gt;p&lt;sub&gt;87&lt;/sub&gt;&lt;/span&gt;" style="ellipse;whiteSpace=wrap;html=1;aspect=fixed;fillColor=#fff2cc;strokeColor=#d6b656;" vertex="1" parent="ksuWYuczVlK9YjMwTnbf-26">
          <mxGeometry x="711" y="910" width="80" height="80" as="geometry" />
        </mxCell>
        <mxCell id="ksuWYuczVlK9YjMwTnbf-198" style="edgeStyle=orthogonalEdgeStyle;rounded=0;orthogonalLoop=1;jettySize=auto;html=1;exitX=1;exitY=0.5;exitDx=0;exitDy=0;entryX=0;entryY=0.5;entryDx=0;entryDy=0;endArrow=none;endFill=0;" edge="1" parent="ksuWYuczVlK9YjMwTnbf-26" source="ksuWYuczVlK9YjMwTnbf-199" target="ksuWYuczVlK9YjMwTnbf-191">
          <mxGeometry relative="1" as="geometry" />
        </mxCell>
        <mxCell id="ksuWYuczVlK9YjMwTnbf-199" value="&lt;span style=&quot;font-size: 39px&quot;&gt;p&lt;sub&gt;83&lt;/sub&gt;&lt;/span&gt;" style="ellipse;whiteSpace=wrap;html=1;aspect=fixed;fillColor=#fff2cc;strokeColor=#d6b656;" vertex="1" parent="ksuWYuczVlK9YjMwTnbf-26">
          <mxGeometry x="237" y="910" width="80" height="80" as="geometry" />
        </mxCell>
        <mxCell id="ksuWYuczVlK9YjMwTnbf-200" style="edgeStyle=orthogonalEdgeStyle;rounded=0;orthogonalLoop=1;jettySize=auto;html=1;exitX=1;exitY=0.5;exitDx=0;exitDy=0;endArrow=none;endFill=0;" edge="1" parent="1" source="ksuWYuczVlK9YjMwTnbf-145">
          <mxGeometry relative="1" as="geometry">
            <mxPoint x="730" y="1050" as="targetPoint" />
          </mxGeometry>
        </mxCell>
        <mxCell id="ksuWYuczVlK9YjMwTnbf-201" style="edgeStyle=orthogonalEdgeStyle;rounded=0;orthogonalLoop=1;jettySize=auto;html=1;exitX=1;exitY=0.5;exitDx=0;exitDy=0;endArrow=none;endFill=0;" edge="1" parent="1" source="ksuWYuczVlK9YjMwTnbf-162">
          <mxGeometry relative="1" as="geometry">
            <mxPoint x="850" y="1050" as="targetPoint" />
          </mxGeometry>
        </mxCell>
        <mxCell id="ksuWYuczVlK9YjMwTnbf-202" style="edgeStyle=orthogonalEdgeStyle;rounded=0;orthogonalLoop=1;jettySize=auto;html=1;exitX=1;exitY=0.5;exitDx=0;exitDy=0;endArrow=none;endFill=0;" edge="1" parent="1" source="ksuWYuczVlK9YjMwTnbf-181">
          <mxGeometry relative="1" as="geometry">
            <mxPoint x="1330" y="1180" as="targetPoint" />
          </mxGeometry>
        </mxCell>
        <mxCell id="ksuWYuczVlK9YjMwTnbf-207" value="" style="shape=singleArrow;whiteSpace=wrap;html=1;fillColor=#000000;" vertex="1" parent="1">
          <mxGeometry x="1718" y="888" width="160" height="80" as="geometry" />
        </mxCell>
        <mxCell id="ksuWYuczVlK9YjMwTnbf-216" value="" style="shape=singleArrow;whiteSpace=wrap;html=1;fillColor=#000000;" vertex="1" parent="1">
          <mxGeometry x="1721" y="1147" width="160" height="80" as="geometry" />
        </mxCell>
        <mxCell id="ksuWYuczVlK9YjMwTnbf-225" value="&lt;font style=&quot;font-size: 40px&quot;&gt;&lt;b&gt;out-1&lt;/b&gt;&lt;/font&gt;" style="text;html=1;align=center;verticalAlign=middle;resizable=0;points=[];autosize=1;" vertex="1" parent="1">
          <mxGeometry x="1725" y="875" width="110" height="30" as="geometry" />
        </mxCell>
        <mxCell id="ksuWYuczVlK9YjMwTnbf-226" value="&lt;font style=&quot;font-size: 40px&quot;&gt;&lt;b&gt;out-2&lt;/b&gt;&lt;/font&gt;" style="text;html=1;align=center;verticalAlign=middle;resizable=0;points=[];autosize=1;" vertex="1" parent="1">
          <mxGeometry x="1725" y="1130" width="110" height="30" as="geometry" />
        </mxCell>
      </root>
    </mxGraphModel>
  </diagram>
</mxfile>
